<svg xmlns="http://www.w3.org/2000/svg" width="33" height="33" viewBox="0 0 33 33" fill="none">
  <path d="M16.3333 2C8.42933 2 2 8.43067 2 16.3333C2 24.236 8.42933 30.6667 16.3333 30.6667C24.2373 30.6667 30.6667 24.236 30.6667 16.3333C30.6667 8.43067 24.2373 2 16.3333 2ZM28.616 15.3333H23.216C23.0413 11.676 21.916 7.94935 19.9693 4.54801C24.6933 6.00935 28.204 10.24 28.616 15.3333ZM17.3067 4.04932C19.648 7.53065 21.012 11.48 21.216 15.3333H11.4507C11.6534 11.48 13.0187 7.53065 15.36 4.04932C15.6827 4.02398 16.0053 4 16.3333 4C16.6613 4 16.9853 4.02398 17.3067 4.04932ZM12.6973 4.54801C10.7507 7.94935 9.62535 11.676 9.45068 15.3333H4.05066C4.46266 10.24 7.97335 6.00935 12.6973 4.54801ZM4.05066 17.3333H9.45068C9.62535 20.9907 10.7507 24.7173 12.6973 28.1187C7.97335 26.6573 4.46266 22.4267 4.05066 17.3333ZM15.36 28.6174C13.0187 25.136 11.6547 21.1867 11.4507 17.3333H21.216C21.0133 21.1867 19.648 25.136 17.3067 28.6174C16.984 28.6427 16.6613 28.6667 16.3333 28.6667C16.0053 28.6667 15.6813 28.6427 15.36 28.6174ZM19.9693 28.1187C21.916 24.7173 23.0413 20.9907 23.216 17.3333H28.616C28.204 22.4267 24.6933 26.6573 19.9693 28.1187Z" fill="#FCFCFD"/>
</svg>