<svg width="111" height="29" viewBox="0 0 111 29" fill="none" xmlns="http://www.w3.org/2000/svg">
<path d="M6.26342 3.09069H16.3615V28.5176H13.4556V16.8939H3.28484V28.5176H0.378906V9.15682L6.26342 3.09069ZM3.28484 9.84698V14.2785H13.4556V5.70603H7.31682L3.28484 9.84698Z" fill="white"/>
<path d="M19.0353 9.22947H20.6336L24.0844 11.2999L26.0822 9.22947H33.565L35.4538 11.9901L33.2744 13.4794L32.1847 11.8448H27.2082L25.61 13.552V25.9022H30.7317V28.5176H19.0353V25.9022H22.7041V13.9153L21.2874 11.8448H19.0353V9.22947Z" fill="white"/>
<path d="M38.1276 1.34713H41.0336V10.973L43.9395 9.19315H51.277L54.2555 13.6247V25.4664L51.277 28.5176H44.0121L41.0336 26.774V28.5176H38.1276V1.34713ZM41.0336 13.0435V25.8659H50.2236L51.3133 24.7035V13.9516L49.8966 11.8448H42.1959L41.0336 13.0435Z" fill="white"/>
<path d="M58.4186 8.53931H63.5403L66.4463 12.8982V25.9022H73.0209V28.5176H56.9657V25.9022H63.5403V13.2614L62.16 11.191H58.4186V8.53931ZM63.1771 3.78085H66.8095V0.148438H63.1771V3.78085Z" fill="white"/>
<path d="M79.4724 1.34713H82.3784V9.19315H88.2629V11.8448H82.3784V23.7954L83.795 25.8659H87.4637L89.6432 23.6865L91.1325 25.8659L88.6624 28.5176H82.3784L79.4724 24.2313V11.8448H76.6028V9.19315H79.4724V1.34713Z" fill="white"/>
<path d="M97.6566 9.22947H107.936L110.842 13.5884V25.5027L107.936 28.5176H97.693L94.7507 24.1587V12.2444L97.6566 9.22947ZM97.6203 23.7954L99.0733 25.9022H106.774L107.864 24.7399V13.9153L106.483 11.8448H98.7464L97.6203 13.0435V23.7954Z" fill="white"/>
</svg>
