<svg width="73" height="61" viewBox="0 0 73 61" fill="none" xmlns="http://www.w3.org/2000/svg">
<g clip-path="url(#clip0_43_21832)">
<path d="M31.1211 10.9748C31.5155 10.2325 31.6661 9.55784 31.6661 9.55784C31.7683 9.10094 32.0249 8.60652 32.5381 7.61742C33.7623 5.25895 35.8791 3.16332 38.2936 2.03641C39.2897 1.57135 41.4074 0.76436 44.1143 1.03345C44.9691 1.11852 46.719 1.31259 48.5833 2.49414C49.1435 2.84912 50.6629 3.89421 51.7879 5.87323C52.2217 6.63647 53.421 8.81853 53.0089 11.6722C52.6917 13.8671 51.5863 15.3199 51.0467 16.0105C49.7287 17.6987 48.2088 18.5207 47.1661 19.0844C46.7076 19.3323 44.3684 20.2219 43.7362 20.4214C43.7362 20.4214 43.6397 20.4518 43.5109 20.5087C43.2035 20.6443 42.7501 20.9136 42.7914 21.0754C42.808 21.1398 42.898 21.1683 42.9512 21.1844C43.8634 21.4586 44.4628 21.4532 44.4628 21.4532C44.8726 21.448 45.0773 21.4453 45.4437 21.395C45.8014 21.3461 46.6437 21.2067 48.1762 20.5812C48.8687 20.2985 48.8223 20.2757 50.2253 19.6655C50.6711 19.4717 51.1538 19.2619 51.4898 19.1279C52.0818 18.8917 53.2557 18.4557 54.818 18.2703C55.4405 18.1964 56.1325 18.1189 57.049 18.2268C58.0251 18.3418 58.7288 18.6049 58.8802 18.6628C59.3436 18.84 60.4896 19.2934 61.4963 20.4141C61.7991 20.7511 62.2539 21.267 62.5572 22.071C62.8823 22.9324 62.9171 23.8163 62.9206 23.9242C62.9271 24.128 62.9304 24.583 62.9932 25.225C63.0206 25.5036 63.035 25.6461 63.0731 25.7991C63.1408 26.0704 63.2666 26.5748 63.7053 26.9399C64.1182 27.2834 64.5876 27.3199 64.7808 27.3324C65.4769 27.3769 65.9828 27.0478 66.176 26.9181C66.3831 26.7792 66.9009 26.3857 67.1352 25.6681C67.3032 25.1533 67.2442 24.7208 67.2078 24.4762C67.1075 23.7991 66.7952 23.3406 66.6191 23.0881C66.185 22.4657 65.6563 22.1169 65.4345 21.9835C64.9928 21.7179 64.6322 21.6252 64.6498 21.5548C64.6699 21.4741 65.1638 21.5116 65.5509 21.5839C65.8708 21.6437 66.6995 21.8353 67.5856 22.5067C67.9428 22.7772 69.008 23.6083 69.4749 25.1446C69.7766 26.1367 69.6908 26.9687 69.6421 27.3027C69.4363 28.7134 68.6726 29.6144 68.3632 29.9697C67.4853 30.9776 66.4889 31.3844 66.0597 31.5538C65.2171 31.8865 64.5275 31.9419 64.3593 31.9533C64.1141 31.9702 63.3321 32.0072 62.3754 31.7207C60.8761 31.2716 59.5847 30.217 58.7622 28.895C58.0971 27.826 57.8653 25.7358 56.2817 25.6545C54.7354 25.5751 53.3035 26.3843 52.1576 27.3511C51.4482 27.9496 50.838 28.6422 50.2348 29.3451C50.1462 29.4484 50.0535 29.5631 50.0478 29.6992C50.0397 29.8944 50.2946 30.0733 50.427 30.1774C51.1688 30.7596 51.9624 31.26 52.6797 31.8786C55.0224 33.8989 56.805 36.4974 59.6701 37.8665C61.2585 38.6254 63.1234 39.0086 64.798 38.2951C66.6259 37.5164 67.5149 35.832 68.0069 34.0028C68.3304 32.7997 68.4062 31.8517 68.4866 31.859C68.513 31.8615 68.5165 31.9642 68.5522 32.2733C68.6035 32.7228 68.6133 32.6579 68.6829 33.2034C68.7639 33.8367 68.8155 34.4306 68.8283 34.6059C68.9637 36.4732 68.3997 38.0067 68.3997 38.0067C68.2643 38.3748 67.7316 39.7265 66.394 40.9208C64.9909 42.1735 63.5052 42.5364 62.5425 42.7593C60.6029 43.2083 59.046 42.9623 58.2694 42.8318C58.2694 42.8318 56.7691 42.5796 54.9194 41.7346C54.3073 41.4549 53.6683 41.0338 53.6259 40.986C53.6226 40.9825 53.5933 40.9474 53.5824 40.9534C53.5759 40.9569 53.5789 40.9741 53.5797 40.9789C53.5993 41.0961 53.5759 41.2184 53.5987 41.335C53.6436 41.5631 53.6235 42.5195 53.596 43.0835C53.5827 43.3581 53.5607 43.7979 53.4924 44.3371C53.4373 44.7734 53.3218 45.6543 52.9692 46.7298C52.7838 47.2957 52.518 48.0891 51.9391 49.0135C51.2884 50.0524 50.5798 50.7175 50.255 51.0029C49.8356 51.3715 48.9908 52.0999 47.666 52.5834C47.149 52.7721 46.3257 53.0637 45.2135 53.0303C44.8476 53.0194 44.0515 52.9613 43.126 52.5834C42.15 52.185 41.5221 51.6313 41.2728 51.3954C40.9703 51.1089 40.3202 50.4791 39.9103 49.4278C39.7746 49.0796 39.5403 48.4604 39.567 47.6292C39.5732 47.4354 39.6189 46.4404 40.2864 45.411C41.1437 44.0887 42.4171 43.6505 42.7827 43.5307C43.0312 43.4491 43.4261 43.3235 43.9599 43.3235C44.8465 43.3238 45.6005 43.6709 45.5894 43.716C45.5859 43.7304 45.5035 43.7188 45.419 43.712C44.8191 43.663 44.3114 43.8682 44.0945 43.9558C43.84 44.0585 43.2538 44.3045 42.8137 44.9204C42.7099 45.0656 42.1347 45.8709 42.3614 46.8935C42.3853 47.0014 42.5147 47.5471 42.9936 48.0326C43.0776 48.1179 43.6185 48.6504 44.4652 48.7412C44.6267 48.7586 44.8716 48.7825 45.1738 48.7031C45.7038 48.5637 46.0175 48.2095 46.1602 48.0437C46.314 47.8652 46.5997 47.4786 46.7544 46.6649C46.794 46.4558 46.9639 45.4874 46.5964 44.065C46.4959 43.6755 46.1822 42.5864 45.3646 41.4108C44.1901 39.7221 42.8414 39.1002 42.7398 38.9948C42.7352 38.9899 42.7102 38.9624 42.6909 38.9689C42.6754 38.9741 42.6707 38.998 42.6694 39.0035C42.6283 39.1875 42.4946 39.34 42.4386 39.5199C42.3804 39.7069 42.2263 39.9439 41.9181 40.4179C41.7401 40.6919 41.4957 41.0648 41.1277 41.5079C40.6727 42.0558 40.3153 42.3633 39.8578 42.7832C38.9742 43.594 38.4004 44.1208 37.8358 44.8052C37.4841 45.2316 36.8965 45.9541 36.4116 47.0288C36.2985 47.2797 35.8133 48.3865 35.6557 49.9502C35.4755 51.7389 35.8185 53.1869 36.0773 54.0053C36.5554 55.5184 37.2833 56.5814 37.7195 57.1446C38.1498 57.6997 38.7931 58.5154 39.885 59.2085C41.054 59.9505 42.378 60.3248 42.3413 60.4348C42.3345 60.455 42.2869 60.4544 42.1404 60.4465C41.3019 60.4014 40.8352 60.324 40.8352 60.324C40.4156 60.2541 40.2057 60.2193 39.9823 60.1704C39.7102 60.1109 38.8141 59.9021 37.7206 59.3965C37.492 59.2908 36.6146 58.876 35.5733 58.1104C34.3143 57.1843 33.5285 56.2691 33.3442 56.0501C31.7384 54.1433 31.1744 52.1418 30.948 51.3049C30.3829 49.2169 30.3095 47.0685 30.7871 44.9598C31.1698 43.2692 31.8887 41.6786 32.715 40.1622C33.1371 39.3875 33.5932 38.6333 34.045 37.8757C34.2436 37.5428 34.3709 37.2253 34.4899 36.8548C34.5361 36.7116 34.7258 35.586 34.7979 35.5605C34.3032 35.7361 33.8082 35.9019 33.3268 36.1125C31.9893 36.6955 31.3204 36.9872 30.8852 37.2079C30.1989 37.5561 28.776 38.2867 27.1392 39.537C26.3925 40.1073 25.5554 40.7468 24.6103 41.7933C23.239 43.3119 22.5057 44.7293 22.114 45.4994C21.6729 46.3664 21.3084 47.0832 21.0349 48.1481C20.575 49.9388 20.7153 51.3802 20.7623 51.789C20.8243 52.325 21.023 53.6484 21.787 55.1354C22.0923 55.7293 22.6215 56.7595 23.662 57.6969C23.9471 57.9538 24.781 58.6638 24.7519 58.6999C24.7503 58.7021 24.7456 58.7013 24.6212 58.6619C24.5026 58.6241 24.485 58.6184 24.485 58.6184C24.3021 58.5575 24.1471 58.5072 24.0898 58.4876C23.9147 58.4278 23.5347 58.2713 23.155 58.0788C22.2725 57.632 21.531 57.0759 21.531 57.0759C21.2855 56.8918 20.3533 56.1756 19.4055 54.9531C19.0858 54.541 18.2976 53.4687 17.6724 51.8846C16.9073 49.9461 16.8124 48.3204 16.7676 47.4265C16.6518 45.1104 17.0864 43.36 17.3672 42.2651C17.8795 40.2679 18.5737 38.8806 19.1603 37.7088C19.6126 36.8054 20.366 35.4243 21.2586 34.3569C22.1284 33.3167 23.1578 32.5415 23.1716 32.5312C23.1901 32.5176 23.208 32.5032 23.2271 32.4904C23.2659 32.4638 23.2771 32.4597 23.276 32.454C23.2733 32.4382 23.186 32.4475 23.0653 32.4377C23.0031 32.4325 22.9661 32.4252 22.9292 32.4195C22.7886 32.3977 22.5098 32.3787 22.2151 32.3722C22.0885 32.3695 21.7895 32.3632 21.4592 32.3831C21.2948 32.3928 20.6713 32.4363 19.8732 32.6483C18.9809 32.8854 18.3449 33.2075 18.1655 33.3007C17.4604 33.6674 16.9845 34.0498 16.5594 34.3952C16.3028 34.604 16.3028 34.6208 15.4175 35.4308C14.6268 36.1541 14.2259 36.5202 13.9514 36.7388C13.3483 37.219 12.9463 37.5392 12.3135 37.8396C11.893 38.0394 11.1415 38.3867 10.117 38.4009C9.66066 38.4071 9.31736 38.3451 9.11976 38.3082C8.88845 38.265 7.92871 38.0709 6.90889 37.3908C6.42099 37.0655 5.1908 36.2196 4.57624 34.5567C4.40637 34.0971 4.01415 32.8468 4.38734 31.3521C4.51346 30.8471 4.74694 29.9113 5.59362 29.1358C6.38321 28.4125 7.25136 28.2456 7.43945 28.213C7.43945 28.213 8.46498 28.0344 9.45245 28.4457C9.51307 28.471 9.69164 28.5452 9.68512 28.5655C9.68104 28.5783 9.60466 28.5645 9.59053 28.562C9.4057 28.5299 8.89742 28.5859 8.44949 28.78C7.83656 29.0458 7.4949 29.5019 7.33753 29.7175C7.16085 29.9596 6.83985 30.3994 6.78522 31.0583C6.76782 31.2673 6.73058 31.8109 7.06137 32.3662C7.44734 33.0145 8.07603 33.2441 8.34403 33.3181C8.48863 33.358 9.12275 33.5333 9.72834 33.2382C9.8637 33.1721 9.9523 33.1047 10.1061 32.9876C10.5764 32.6296 10.8547 32.2534 10.9528 32.1227C11.3537 31.5891 11.827 31.114 12.2572 30.6038C12.8778 29.8683 13.1882 29.5008 13.5652 29.0668C13.9144 28.665 14.2621 28.2723 14.5279 27.9548C14.7078 27.7401 15.0598 27.3101 15.0875 27.2935C15.0894 27.2924 15.1049 27.284 15.109 27.2685C15.109 27.2685 15.1109 27.2606 15.1087 27.2519C15.1003 27.2204 14.8606 27.1986 14.7366 27.1782C14.6815 27.1693 14.6809 27.1655 14.4969 27.116C14.2439 27.048 14.0745 27.0089 14.0009 26.9907C13.5858 26.8874 12.9626 26.6295 12.8101 26.5656C12.1501 26.2889 11.6698 26.0225 11.5402 25.9497C11.276 25.8013 10.7348 25.4838 10.1013 24.9959C9.82184 24.7806 9.15972 24.2512 8.42801 23.4371C8.18203 23.1637 7.76671 22.6975 7.33263 22.0365C6.59386 20.9112 6.25873 19.9169 6.07363 19.3551C5.54143 17.74 5.46831 16.4133 5.45228 15.976C5.39819 14.5012 5.63629 13.3996 5.87195 12.308C6.07743 11.3572 6.25519 10.8987 6.30792 10.7655C6.48242 10.3262 6.87464 9.45483 7.64874 8.54727C8.63812 7.3872 9.7827 6.71747 9.81803 6.7596C9.82836 6.77183 9.74709 6.8482 9.6381 6.96671C9.15917 7.48777 8.90938 7.99088 8.72782 8.35646C8.64709 8.519 8.26058 9.31539 8.07929 10.4711C7.88576 11.7046 8.03254 12.6679 8.11734 13.1962C8.35028 14.6466 8.85883 15.6732 9.00017 15.9486C9.80743 17.5207 10.8786 18.4315 11.4309 18.8917C12.6345 19.8941 13.7505 20.3654 14.5374 20.6902C14.5374 20.6902 16.1498 21.3559 18.5466 21.6818C18.7645 21.7114 19.5001 21.928 19.5319 21.6407C19.5618 21.3725 19.1663 20.9204 19.0567 20.6804C18.9344 20.4124 18.8045 20.145 18.6988 19.8699C18.184 18.534 17.9323 17.1103 17.8795 15.6825C17.8529 14.9597 17.8757 14.2354 17.9358 13.5148C17.9894 12.8717 18.1288 12.2561 17.8991 11.6306C17.7243 11.1547 17.4148 10.7902 16.885 10.7185C16.4759 10.663 16.0313 10.7932 15.7045 11.0419C15.2237 11.4075 15.084 11.9321 14.9998 12.2482C14.9541 12.4194 14.8146 12.9652 14.9342 13.6143C14.9843 13.8861 15.1022 14.2968 15.0288 14.3264C15.0131 14.3327 14.994 14.3196 14.9821 14.3109C14.5431 13.9981 14.5396 13.9945 14.5244 13.9799C14.2208 13.6866 14.2441 13.7119 14.2246 13.6909C14.1593 13.6211 13.834 13.2685 13.5861 12.8407C13.1661 12.1164 13.0563 11.3278 13.0264 11.0604C12.9745 10.5923 12.8623 9.58231 13.4116 8.50976C13.9446 7.46901 14.7915 6.97188 15.1411 6.77291C16.6673 5.90422 18.1948 6.19342 18.6509 6.30051C19.6697 6.5397 20.341 7.04499 20.5549 7.21623C21.4429 7.92619 21.8409 8.78455 22.0738 9.2874C22.3228 9.82449 22.4641 10.3252 22.5897 10.7698C22.7 11.1601 22.7688 11.4907 22.9023 12.1359C23.1632 13.399 23.1423 13.5053 23.3309 14.3014C23.5394 15.1802 23.7082 15.6553 23.7669 15.8165C23.8835 16.1366 24.0148 16.493 24.252 16.9393C24.6467 17.6821 25.0569 18.1518 25.1515 18.2584C25.336 18.4666 25.5486 18.7033 25.887 18.9558C26.5426 19.4453 27.1691 19.5889 27.956 19.7256C28.2737 19.7808 27.9714 19.3342 27.9078 19.2363C26.7779 17.4943 26.3708 15.2606 27.0536 13.2607C27.1356 13.0204 27.3145 12.5186 27.7948 12.2088C28.0378 12.0519 28.2775 11.9959 28.4871 11.9473C28.8744 11.8568 28.9597 11.9209 29.5226 11.8492C29.9149 11.7992 30.1168 11.7717 30.3729 11.6529C30.7553 11.4754 30.9434 11.2403 30.9942 11.1732C31.0608 11.0862 31.1013 11.0123 31.1211 10.9748Z" fill="url(#paint0_linear_43_21832)"/>
<path d="M42.7312 30.7154C42.738 29.8521 42.7454 28.9451 42.2735 27.9359C41.8378 27.0039 41.3532 26.7541 40.5076 25.229C40.1064 24.5051 39.9034 24.1325 39.7808 23.6011C39.7049 23.2722 39.3986 21.9423 40.0713 20.8252C40.2439 20.5387 40.4505 20.3166 40.856 19.8804C41.4714 19.2188 41.585 19.2601 41.859 18.863C42.3379 18.1683 42.488 17.271 42.1759 16.4763C42.1441 16.395 42.1053 16.3121 42.0365 16.258C42.0082 16.236 41.9623 16.2216 41.9405 16.2501C41.9324 16.261 41.9302 16.2751 41.9289 16.2887C41.9131 16.4317 41.9324 16.5722 41.9242 16.7146C41.9006 17.4322 41.6807 18.084 41.1689 18.5993C40.6943 19.0772 40.0936 19.4648 39.4891 19.7561C39.0556 19.9652 38.5326 20.0038 38.0586 19.976C37.1279 19.9217 36.213 19.5439 35.4998 18.9464C35.4158 18.876 35.3343 18.8021 35.256 18.7252C35.063 18.5355 34.8801 18.3262 34.7301 18.1C34.6784 18.022 34.558 17.8693 34.6265 17.7883C34.7994 17.8573 34.9535 17.9726 35.1307 18.0389C35.9594 18.349 36.9059 17.9832 37.5835 17.4137C38.2608 16.8446 38.7542 16.0908 39.3559 15.442C39.8873 14.8693 40.5543 14.357 41.332 14.2811C42.0786 14.2083 42.8519 14.5858 43.2536 15.2194C43.5176 14.9025 43.4493 14.4168 43.2493 14.0561C42.7924 13.232 41.7701 12.8343 40.8313 12.9178C39.8925 13.0012 39.0336 13.4891 38.2994 14.0803C37.5653 14.6715 36.9265 15.3716 36.2079 15.9816C36.3549 13.8077 37.0652 11.674 38.2505 9.84581C39.637 7.70724 41.7147 5.97529 44.1536 5.23516C45.7972 4.73639 47.5392 4.69426 49.2589 4.71356C49.3614 4.71465 49.4236 4.60185 49.369 4.51514C49.1467 4.16234 48.7583 3.9226 48.3786 3.73016C45.2577 2.14744 41.348 2.2953 38.3049 4.02263C35.2617 5.74996 33.1462 8.97929 32.6771 12.447C32.5716 13.2271 32.5472 14.0392 32.8032 14.7837C32.913 15.1023 33.0739 15.4461 32.9516 15.76C32.2564 15.457 31.8185 14.7753 31.2708 14.2502C30.8177 13.8158 30.2477 13.4703 29.6223 13.4182C28.9968 13.3657 28.3198 13.6593 28.0436 14.223C29.111 13.8055 30.442 14.2224 31.0805 15.1743C31.4374 15.7065 31.5809 16.352 31.878 16.9198C32.1751 17.4876 32.7274 18.013 33.3651 17.9505C33.3409 17.953 33.2166 18.2248 33.1938 18.2596C33.1199 18.3737 33.037 18.4819 32.9465 18.5836C32.7652 18.7866 32.5534 18.9622 32.3205 19.103C32.0873 19.2441 31.8446 19.3088 31.5948 19.4061C31.3235 19.5118 31.0813 19.6349 30.7799 19.6561C30.6038 19.6684 30.4002 19.6189 30.2499 19.7382C30.1001 19.857 30.1713 20.0228 30.2048 20.1799C30.4426 21.3033 29.9756 22.3166 29.2127 23.1192C28.6199 23.7427 27.899 24.2464 27.1067 24.5826C26.0888 25.0145 25.0054 25.2586 23.9249 25.4744C22.8611 25.687 21.8116 25.9278 20.7619 26.1874C18.6562 26.7084 16.759 27.7981 15.095 29.1737C14.5726 29.6056 14.0864 30.0799 13.6392 30.5893C12.4107 31.9893 12.1565 32.4245 11.3417 33.2119C10.7225 33.8102 10.0038 34.3709 8.90274 34.3274C8.64969 34.3174 7.26891 34.2432 6.59184 33.1065C6.00664 32.1244 6.1806 30.9287 6.41462 30.2759C6.6019 29.7537 6.86093 29.1386 7.51109 28.7608C8.46948 28.2036 9.6888 28.6051 9.69505 28.5624C9.69968 28.5317 9.06718 28.2963 8.24578 28.3431C7.91065 28.3621 6.87832 28.4298 6.02213 29.2006C4.89522 30.215 4.87402 31.6993 4.87402 32.0782C4.87402 33.3682 5.24721 34.7006 6.25752 35.7226C7.8272 37.3108 9.94919 36.8998 11.0826 36.2893C12.3068 35.6302 13.278 34.5114 13.9132 33.7544C14.9741 32.4895 14.8596 32.4112 15.8099 31.487C17.1339 30.1995 18.1425 29.3778 19.3499 28.9206C20.0609 28.6513 21.4346 28.1416 23.2522 27.9832C24.2247 27.8984 24.7086 27.968 25.7156 27.7396C26.1779 27.635 27.1007 27.3882 28.1355 26.8239C28.5266 26.6106 30.27 25.6236 31.6673 23.5212C32.501 22.2668 32.8239 21.1986 32.91 21.2321C33.0025 21.2679 32.6657 22.5095 32.158 23.7501C31.355 25.7114 30.3673 27.0789 29.9669 27.6089C29.0749 28.7894 28.6981 28.9894 26.2391 31.3367C22.4833 34.9221 21.713 36.03 21.3884 36.5182C20.3406 38.0941 19.7894 39.4523 19.4592 40.2789C18.8503 41.8026 18.0183 43.8841 17.955 46.721C17.9286 47.8946 17.9039 49.9677 18.9033 52.3455C19.1724 52.9853 19.956 54.7243 21.6176 56.4005C23.1503 57.9466 24.7327 58.7394 24.7626 58.6973C24.7917 58.6565 23.3082 57.9044 22.0427 56.3024C20.9139 54.8733 20.5369 53.446 20.146 52.1821C19.868 51.2835 19.1732 48.9848 19.5573 46.1977C19.9772 43.1508 21.4629 41.1237 22.7293 39.3958C23.3588 38.5369 25.3598 35.858 28.681 33.8365C29.1298 33.5634 30.2708 32.8955 31.9294 31.8273C33.9744 30.5102 34.6309 29.985 35.1995 29.1131C35.8662 28.0908 36.0956 27.0767 36.1804 26.5296C36.3473 25.4543 36.2003 24.6054 35.9842 23.3576C35.7265 21.8692 35.3797 20.9208 35.4283 20.9051C35.4868 20.8863 36.016 22.241 36.5074 23.8156C36.9594 25.2638 37.3285 26.4461 37.5539 28.0995C37.8036 29.9326 37.7379 31.3256 37.7175 31.6966C37.6944 32.113 37.6139 33.4574 37.2598 34.836C36.5275 37.6856 35.2506 38.2485 33.717 41.3797C33.1642 42.5088 32.439 43.9893 32.1039 46.045C31.9253 47.1398 31.4616 50.2468 33.0196 53.6316C34.0989 55.9768 35.6254 57.3404 36.0282 57.6865C38.6607 59.9487 42.3493 60.4418 42.3526 60.4322C42.3537 60.4293 41.7527 60.273 40.9987 59.9683C40.4247 59.7361 39.9849 59.5587 39.6035 59.3687C38.7118 58.9248 38.1081 58.3997 37.736 58.0716C37.2331 57.6283 35.9706 56.49 35.1636 54.5398C34.6896 53.3944 34.5795 52.4604 34.4879 51.6839C34.2381 49.5698 34.5651 47.9243 34.6841 47.3891C34.8877 46.4736 35.2449 45.3747 36.5153 43.138C38.3388 39.9283 38.8376 40.018 40.4394 37.2518C42.5706 33.5704 42.7242 31.6197 42.7312 30.7154Z" fill="url(#paint1_linear_43_21832)"/>
<path d="M21.1911 20.9865C21.1033 20.8799 21.0229 20.7682 20.9508 20.6508C20.5736 20.036 20.2531 19.3853 19.999 18.7104C19.5877 17.6196 19.4472 16.7319 19.345 16.0616C19.1618 14.8608 19.1523 13.6436 19.139 12.4319C19.1303 11.6423 19.1547 10.6798 18.6902 9.97967C18.1026 9.0944 16.7598 8.93675 15.846 9.35805C14.8058 9.83752 14.5242 10.9506 14.4726 11.1566C14.1201 12.5637 15.1594 14.2527 15.0339 14.3087C14.9211 14.359 13.7613 13.0625 13.5324 11.7353C13.4419 11.2101 13.3867 9.74048 14.1429 8.62472C14.9444 7.44236 16.4723 6.96724 17.8424 7.21159C20.501 7.68562 21.4548 10.5847 21.907 12.8728C22.2672 14.6955 22.5007 16.6664 23.3751 18.3304C23.7969 19.133 24.3952 19.7794 25.2356 20.1428C25.7324 20.3578 26.8417 20.4141 27.0298 21.0321C27.1869 21.5488 26.7126 22.2216 26.2451 22.5363C24.6811 23.5893 22.2202 22.2362 21.1911 20.9865Z" fill="url(#paint2_linear_43_21832)"/>
<path d="M8.41454 8.2271C8.4371 8.20236 8.4602 8.17763 8.48331 8.15289C7.67305 9.66876 7.30421 11.4173 7.43359 13.1313C7.66109 16.1475 9.46806 18.9398 11.9094 20.6639C12.3734 20.9917 12.8627 21.2839 13.3715 21.5364C14.6117 22.1515 15.9604 22.5456 17.3347 22.7092C18.4051 22.8367 19.3868 22.7685 20.4436 22.5877C20.782 22.5298 21.2422 22.5143 21.386 22.8998C21.7105 23.7693 20.9628 24.5262 20.2449 24.8472C19.5263 25.1685 18.7157 25.2791 17.9362 25.3273C16.3953 25.4224 14.8284 25.1324 13.4019 24.5493C11.427 23.7421 9.68849 22.3559 8.60426 20.5038C8.35692 20.0811 8.1392 19.6411 7.94676 19.191C7.28872 17.6512 6.78533 16.0081 6.63258 14.3349C6.50156 12.8989 6.5918 11.4782 7.17863 10.1382C7.48442 9.44044 7.90055 8.79001 8.41454 8.2271Z" fill="url(#paint3_linear_43_21832)"/>
<path d="M43.4844 27.8387C43.1702 28.0646 43.6443 28.7871 43.7861 29.4193C44.0033 30.388 44.0077 31.4867 43.8565 32.5364C43.734 33.386 43.4418 34.3039 43.5499 35.2148C43.7263 36.6966 44.85 37.7477 45.8399 38.7599C46.9551 39.9002 48.0087 40.9477 48.3897 42.5777C48.8798 44.6742 48.907 48.1266 46.9946 49.487C45.7402 50.3794 43.27 50.4299 42.0675 49.1818C41.3508 48.4379 41.1662 47.3218 41.3263 46.4349C41.9004 43.2521 45.0541 43.6155 44.7201 43.6008C44.5798 43.5948 41.8569 43.3102 40.7522 45.9408C40.0521 47.6083 40.5685 49.7798 41.8911 50.904C43.0107 51.8556 44.5108 52.0831 45.9263 51.8414C50.9904 50.9765 53.5657 44.9816 52.4685 40.3595C51.5566 36.5178 49.3772 33.1053 46.6893 30.2589C46.4591 30.0148 44.0215 27.4533 43.4844 27.8387Z" fill="url(#paint4_linear_43_21832)"/>
<path d="M50.1519 33.0751C50.1663 33.1151 50.1894 33.1534 50.2123 33.1898C51.1163 34.6429 51.857 36.1846 52.4653 37.7834C52.5455 37.9937 53.0151 39.0465 53.381 39.6365C53.8338 40.3672 54.3761 40.3653 54.6672 40.574C55.7229 41.3304 57.9574 42.335 60.7714 42.0782C63.2169 41.855 66.219 40.8097 67.506 38.5866C67.8471 37.997 68.3556 36.9688 68.4907 36.1993C68.6128 35.5029 68.6516 32.9841 68.4983 31.9384C68.4981 31.9371 68.4959 31.9368 68.4956 31.9384C68.282 32.9835 68.5679 34.8875 67.0683 37.4018C65.4731 40.0769 62.1321 40.11 59.4518 39.0897C58.46 38.7121 57.5171 38.1998 56.6563 37.5795C55.9455 37.0674 55.2934 36.4738 54.7196 35.8117C54.2513 35.2711 53.8363 34.6883 53.4008 34.1219C52.9697 33.5611 52.5609 32.9936 51.8684 32.7484C51.5637 32.6405 50.1873 32.4557 50.1386 32.9824C50.1353 33.0142 50.1411 33.0452 50.1519 33.0751Z" fill="url(#paint5_linear_43_21832)"/>
<path d="M64.6616 21.5522C65.054 21.5626 66.3579 22.0458 66.6047 22.1902C66.8771 22.3494 67.1323 22.5373 67.3674 22.7474C67.8398 23.1697 68.2298 23.6832 68.5169 24.2477C69.0624 25.3203 69.3076 26.76 68.8101 27.8889C68.1317 29.4286 66.6267 30.4427 64.9611 30.7151C63.0533 31.0269 61.1504 30.1511 60.1036 28.526C59.6758 27.8617 59.3246 27.1346 58.9599 26.4358C58.5644 25.6782 57.9765 24.8503 57.1939 24.5065C56.0081 23.9852 54.2182 24.1901 53.1063 24.8552C52.2261 25.382 51.2819 25.9819 50.6141 26.7598C49.7255 27.7945 49.1754 29.1601 47.6024 28.8712C47.0164 28.7635 46.4693 28.5045 45.9474 28.2169C44.5824 27.4651 43.3367 26.4942 42.3163 25.3135C41.7132 24.6155 41.2174 23.8085 40.981 22.917C40.7676 22.1119 41.6803 22.1728 42.2093 22.2388C43.8646 22.4459 45.519 22.5046 47.1406 22.0559C48.6937 21.6262 50.1275 20.8708 51.6233 20.287C53.8135 19.4319 56.4103 18.7858 58.6408 19.8725C60.0158 20.5422 61.0577 21.8452 61.4447 23.3249C61.6581 24.1406 61.6817 24.9944 61.8584 25.8188C62.0351 26.6432 62.4048 27.4814 63.1125 27.9391C63.7885 28.3762 64.6675 28.3901 65.4444 28.1789C66.2622 27.9565 67.0377 27.476 67.4674 26.7456C67.9507 25.9242 67.9836 24.9427 67.537 24.1012C67.2252 23.5128 67.0361 22.3573 64.6616 21.5522Z" fill="url(#paint6_linear_43_21832)"/>
<path d="M51.038 6.57658C51.063 6.54723 51.104 6.53581 51.1657 6.55783C51.2674 6.59425 51.3451 6.70977 51.4036 6.79376C51.5702 7.03267 51.6928 7.30366 51.808 7.57004C51.8306 7.62222 51.8523 7.67468 51.8746 7.72687C52.126 8.31642 52.2899 8.94103 52.3717 9.57651C52.5582 11.0269 52.1956 12.4772 51.4302 13.7229C50.795 14.7569 50.3873 15.2622 49.4783 16.0515C49.3397 16.1719 48.6107 16.8033 48.4001 16.768C48.1174 16.7207 48.1756 15.9531 48.1601 15.7449C48.0951 14.8751 47.7937 14.0314 47.1286 13.4408C46.9008 13.2386 46.614 12.9518 46.965 12.6906C47.1794 12.531 47.4569 12.5109 47.707 12.4424C49.0258 12.0818 50.1766 11.1606 50.8181 9.95323C51.0165 9.57977 51.1744 9.18022 51.2443 8.76163C51.3552 8.0968 51.1932 7.43033 51.0187 6.79158C50.9977 6.71656 50.9977 6.6236 51.038 6.57658Z" fill="#6222DD"/>
<path d="M39.6645 16.3402C39.6884 16.3064 39.7142 16.2736 39.742 16.2418C40.2424 15.6642 41.4745 15.6381 41.5296 16.5927C41.5457 16.868 41.4535 17.1461 41.3519 17.3986C41.1119 17.9952 40.6069 18.4268 40.0374 18.6983C39.5555 18.928 39.0152 19.0164 38.484 18.9984C38.2163 18.9894 37.9494 18.9536 37.6882 18.8932C37.5936 18.8715 37.0424 18.7725 37.0459 18.6437C37.047 18.5994 37.1372 18.5676 37.1949 18.5494C37.5607 18.4333 37.9567 18.4524 38.3057 18.2795C38.8306 18.0194 39.0804 17.5108 39.3231 17.0066C39.4324 16.7794 39.518 16.5454 39.6645 16.3402Z" fill="#E3DCFF"/>
<path d="M31.0747 18.3882C31.0946 18.1995 30.7678 18.0721 30.4998 17.8707C30.1623 17.6168 29.9921 17.3007 29.795 16.9351C29.5906 16.5559 29.5213 16.2629 29.4303 16.2751C29.4132 16.2773 29.3691 16.2939 29.3254 16.5173C29.2854 16.7206 29.2275 17.0158 29.3455 17.4007C29.3884 17.5407 29.5961 18.2183 30.2153 18.4597C30.4895 18.5665 30.9394 18.6252 31.05 18.4597C31.0701 18.4289 31.0736 18.3993 31.0747 18.3882Z" fill="#E3DCFF"/>
<path d="M13.7715 9.34668C14.0957 8.50707 14.666 7.83489 15.5339 7.46795C16.3278 7.132 17.1672 7.05236 18.01 7.23339C19.5835 7.57151 20.5688 8.88842 21.1567 10.2765C21.7455 11.6663 21.952 13.106 22.2418 14.6265C22.5212 16.0921 22.8822 17.6716 23.7234 18.8993C23.5051 18.6017 23.2727 18.2956 23.0828 17.9697C22.8985 17.6536 22.7264 17.3305 22.5813 16.9948C22.2869 16.3139 22.0784 15.599 21.9113 14.8777C21.6237 13.6363 21.44 12.3692 21.0651 11.1515C20.7064 9.98624 20.1356 8.82726 19.1481 8.11241C18.303 7.50057 17.1903 7.27389 16.1732 7.50601C15.1561 7.73786 14.2673 8.42879 13.7715 9.34668Z" fill="url(#paint7_linear_43_21832)"/>
<path d="M7.42691 11.8502C7.43833 11.7268 7.34347 13.2272 7.63457 14.4598C8.11893 16.5093 9.08357 17.8164 9.60055 18.4763C9.96477 18.9414 11.046 20.2431 12.8861 21.2819C12.8861 21.2819 14.4961 22.1908 16.4131 22.5648C16.9494 22.6695 17.3821 22.7132 17.3821 22.7132C17.6865 22.744 17.9496 22.7624 17.8942 22.7592C17.876 22.7581 17.0538 22.7907 16.4686 22.7657C16.0467 22.7478 14.5983 22.573 13.1438 21.9709C11.0898 21.1205 9.8623 19.6239 9.15777 18.6236C8.59677 17.827 7.66338 16.4696 7.39919 14.5397C7.23067 13.3049 7.42283 11.8975 7.42691 11.8502Z" fill="url(#paint8_linear_43_21832)"/>
<path d="M43.6714 22.3739C43.8492 22.3503 45.2966 22.5487 47.2628 22.0149C47.7059 21.8948 48.1617 21.7499 49.1687 21.3177C50.7496 20.6393 50.861 20.57 51.8167 20.1867C52.8471 19.7736 53.9226 19.4681 55.314 19.3237C55.9185 19.2609 56.9891 19.2493 58.0881 19.617C58.5113 19.7586 59.0027 20.0323 59.4631 20.3691C59.7048 20.5458 59.9002 20.7404 59.9646 20.7988C60.1554 20.9717 60.3617 21.2329 60.3296 21.1929C60.3055 21.1625 59.8423 20.7358 58.9728 20.2443C58.2259 19.8222 57.5654 19.6597 57.3159 19.6048C56.3678 19.3969 55.613 19.4868 55.034 19.5613C54.5491 19.6235 53.8327 19.7565 52.5633 20.2443C50.9053 20.8817 50.9189 21.1196 49.4677 21.7124C48.4881 22.1125 47.2626 22.6001 45.6597 22.6281C44.5573 22.6471 43.6029 22.3829 43.6714 22.3739Z" fill="url(#paint9_linear_43_21832)"/>
<path d="M48.291 32.0632C49.5786 33.6538 50.4195 35.108 50.9564 36.1787C51.7122 37.6858 52.0868 38.8717 52.2116 39.2906C52.364 39.8018 52.5075 40.2742 52.6133 40.91C52.7024 41.4474 52.8824 42.8058 52.5701 44.5038C52.429 45.2711 52.0593 46.8511 50.9066 48.56C49.7936 50.2099 48.3345 50.9766 48.3361 50.9785C48.3372 50.9796 48.7922 50.6464 49.332 50.0897C50.1341 49.2626 50.8191 48.2719 51.1988 47.1659C51.6299 45.9101 51.768 44.4986 51.7302 43.1861C51.6644 40.9032 51.08 38.6679 50.3086 36.5203C50.189 36.1871 50.0594 35.8577 49.9197 35.5323C49.6715 34.9558 49.4103 34.3853 49.1722 33.8044C48.8591 33.0415 48.5259 32.4484 48.291 32.0632Z" fill="url(#paint10_linear_43_21832)"/>
<path d="M4.87306 32.0783C4.8717 32.3153 4.8842 32.6151 4.93394 32.9584C4.99075 33.3514 5.07338 33.6414 5.09458 33.7145C5.16389 33.9529 5.32996 34.5066 5.74392 35.1029C5.93011 35.3712 6.28346 35.8691 6.93498 36.2711C7.07523 36.3576 7.7485 36.79 8.70607 36.8254C9.73024 36.8631 10.4908 36.5783 10.8607 36.4114C11.3551 36.1882 11.6777 35.9317 12.0526 35.6427C12.7454 35.1089 13.2077 34.5772 13.8177 33.867C14.2477 33.3661 14.6325 32.8328 15.0514 32.3231C15.5847 31.6743 16.181 31.109 16.8214 30.5654C17.5487 29.9478 18.3294 29.3444 19.2103 28.978C20.3141 28.5192 21.7781 28.224 23.0401 28.0022C20.976 27.8367 18.7412 28.361 16.9793 29.4491C16.539 29.7209 16.1229 30.0307 15.7401 30.3792C15.4316 30.66 15.1457 30.9657 14.8889 31.2946C14.2564 32.1046 13.7399 32.9986 13.0928 33.7977C12.8672 34.0763 12.6258 34.3427 12.3616 34.5854C10.9333 35.8979 8.86426 36.7087 7.05349 35.6775C6.40441 35.3079 5.84639 34.7626 5.48707 34.1057C5.09023 33.381 4.85484 32.5441 4.87306 32.0783Z" fill="#561FDB"/>
<path d="M24.3739 22.8662C24.0741 22.8265 23.6197 22.69 23.1913 22.487C23.0717 22.4302 22.838 22.3277 22.5167 22.1361C21.5917 21.5841 21.0405 20.8157 20.9408 20.6572C20.7423 20.3422 20.613 20.1139 20.423 19.7456C19.8976 18.7274 19.6682 17.7796 19.5388 17.2409C19.2031 15.8427 19.1672 13.9313 19.165 13.8947C19.1993 14.4671 19.3966 16.0539 19.5472 16.6027C20.0734 18.5159 20.5551 20.0429 22.0606 21.4199C22.39 21.721 22.9222 22.1481 23.2968 22.3905C23.5833 22.5762 24.0353 22.7939 24.3739 22.8662Z" fill="#561FDB"/>
<path d="M46.211 28.3397C46.1713 28.1192 47.2789 27.902 48.289 27.3674C49.0052 26.9882 49.4825 26.4117 50.062 25.8659C50.7928 25.1777 51.6123 24.5528 52.5085 24.0935C53.4277 23.6222 54.4492 23.2591 55.4959 23.2012C56.2284 23.1607 57.0558 23.2422 57.6992 23.6246C58.2838 23.972 58.7217 24.5216 59.0316 25.1188C59.5496 26.1168 60.1038 27.1059 60.7073 28.0556C61.58 29.4291 63.1296 30.5041 64.8213 30.3434C65.7743 30.2532 66.484 30.0338 66.7615 29.9218C67.4383 29.6492 67.8824 29.2151 68.0759 29.0336C68.1431 28.9705 67.4741 29.7139 66.6693 30.1404C65.8311 30.5848 65.0904 30.6981 64.9298 30.7207C64.4832 30.784 63.2967 30.9474 62.0089 30.2937C61.5262 30.0488 61.1378 29.7242 60.9701 29.5766C60.7159 29.3532 60.5132 29.2513 59.8695 28.1426C59.6491 27.7632 59.4314 27.3829 59.2384 26.9888C58.9932 26.4884 58.7247 25.9975 58.3847 25.5545C58.2444 25.3718 58.1047 25.1911 57.9362 25.0337C57.7299 24.841 57.4975 24.6782 57.2433 24.555C56.741 24.3118 56.1882 24.2446 55.7718 24.2299C55.5554 24.2223 54.8767 24.168 53.9529 24.477C53.4612 24.6415 53.1475 24.8323 52.6123 25.1552C52.0393 25.5012 51.5661 25.8249 50.9695 26.3829C50.5235 26.8001 50.078 27.4449 50.0519 27.4799C49.7983 27.8189 49.6923 27.9956 49.4246 28.2494C49.1794 28.4821 48.9348 28.709 48.5472 28.8305C48.1574 28.9526 47.8546 28.9091 47.6287 28.8767C47.4787 28.8553 47.1289 28.789 46.5372 28.5207C46.2781 28.403 46.2181 28.3788 46.211 28.3397Z" fill="url(#paint11_linear_43_21832)"/>
<path d="M42.3537 60.4322C42.3365 60.477 39.4502 59.7222 37.3511 57.7185C36.9417 57.3276 36.6433 56.9669 36.5596 56.8642C35.503 55.5685 35.054 54.3092 34.8831 53.7558C34.6697 53.0652 34.5993 52.5406 34.5273 52.0024C34.4242 51.2345 34.2487 49.8415 34.5523 48.0922C34.8146 46.5812 35.3177 45.4782 35.6341 44.7968C35.8928 44.2393 36.1334 43.8142 36.4584 43.2402C36.749 42.7265 37.2532 41.8689 37.9686 40.8273C38.7479 39.6928 38.7984 39.7662 39.4478 38.8296C40.4915 37.324 41.1131 36.0501 41.32 35.6133C41.7837 34.6337 42.2316 33.6459 42.4795 32.5867C42.663 31.8026 42.7114 31.2231 42.729 30.917C42.7671 30.2484 42.807 29.5501 42.5534 28.6988C42.5167 28.5754 42.3384 27.9029 41.8813 27.2563C41.5978 26.8551 41.5407 26.7907 41.1708 26.2531C40.6951 25.5613 40.5521 25.3115 40.5538 25.3154C40.8337 25.9136 41.6426 27.1443 41.9019 27.7013C42.7122 29.4408 42.6619 30.6691 42.1971 32.5375C41.0427 37.1783 36.6294 40.29 34.6971 44.6204C34.677 44.6653 34.6575 44.7101 34.6379 44.7552C34.2546 45.637 33.96 46.5568 33.785 47.5029C33.3433 49.8913 33.4952 52.4544 34.462 54.7009C35.1388 56.2736 36.2307 57.6478 37.6628 58.5961C39.0939 59.5437 40.647 60.0085 42.2892 60.4129C42.2928 60.4132 42.3558 60.4257 42.3537 60.4322Z" fill="#561FDB"/>
<path d="M51.3983 35.3334C51.4315 35.3174 52.0471 37.0548 53.5818 38.8419C53.9922 39.32 54.3208 39.7027 54.8462 40.1063C56.4732 41.3567 58.2343 41.6722 59.399 41.7633C60.4022 41.8416 62.1021 41.8587 63.909 41.1292C66.1213 40.2363 67.3213 38.8767 67.4529 38.6709C67.5037 38.5913 67.043 39.3676 66.5763 39.775C66.183 40.1186 65.8052 40.4151 65.2134 40.7508C63.8696 41.5135 62.5307 41.8108 61.8577 41.9288C61.0961 42.0623 59.9206 42.2716 58.1383 41.9663C56.4107 41.6703 55.2406 40.996 55.1164 40.8959C55.1009 40.8834 54.7329 40.6157 54.5679 40.516C54.4763 40.4605 54.3964 40.4477 54.3662 40.4363C54.3662 40.4363 54.0517 40.3412 53.7576 40.1093C53.4989 39.9052 53.3738 39.6486 53.2665 39.448C52.7897 38.5568 52.5886 38.1077 52.3141 37.4011C51.8316 36.1586 51.3747 35.3448 51.3983 35.3334Z" fill="#561FDB"/>
<path d="M47.9229 14.6317C48.0161 14.2411 48.722 14.1169 49.0329 14.0052C50.0122 13.6529 50.8709 12.9984 51.421 12.1034C51.7773 11.5236 52.0065 10.9063 52.1687 10.2483C52.2628 9.86722 52.3405 9.36764 52.2669 8.98059C52.293 9.11785 52.565 10.1089 52.3112 11.4597C52.2837 11.6054 52.197 12.039 51.9961 12.5712C51.9961 12.5712 51.4332 14.3243 49.6842 15.8679C49.4338 16.0889 49.4145 16.1155 49.0691 16.3881C48.9209 16.505 48.7535 16.6165 48.601 16.707C48.5717 16.7244 48.5026 16.7804 48.4173 16.77C48.3575 16.7627 48.3162 16.7273 48.3026 16.7157C48.1604 16.5936 48.1754 16.4205 48.1517 16.0631C48.1484 16.0144 48.1243 15.7024 48.0612 15.3694C47.9272 14.6627 47.9117 14.6782 47.9229 14.6317Z" fill="url(#paint12_linear_43_21832)"/>
<path d="M20.4239 42.8858C20.5133 42.585 20.6207 42.2895 20.7452 42.0014C21.4043 40.4746 22.1368 39.2548 22.7566 38.3486C23.959 36.5897 25.1202 35.4487 25.46 35.122C26.0895 34.5161 27.1066 33.5493 28.6428 32.6366C29.0758 32.3794 29.9926 31.9274 31.8257 31.0234C32.5875 30.6478 33.4981 30.2061 34.398 29.323C34.7843 28.9441 35.0381 28.6117 35.1012 28.5285C35.9144 27.4513 36.155 26.6633 36.1808 26.5299C36.1922 26.4709 36.0759 27.5263 35.5146 28.5728C35.1708 29.2137 34.8155 29.6293 34.7364 29.7201C34.5225 29.9655 34.2157 30.2748 33.1711 31.0063C32.8922 31.2017 32.5022 31.4681 31.5737 32.0557C30.9934 32.4229 30.7031 32.5991 29.3764 33.4186C28.1038 34.2046 27.9872 34.2796 27.7991 34.409C27.6154 34.5351 26.8538 35.0385 25.9859 35.823C24.6206 37.057 23.6668 38.1578 23.0901 38.915C22.2271 40.0479 21.6229 40.8777 20.9458 42.0808C20.5008 42.8714 20.1709 43.7638 20.185 43.7211C20.2432 43.5452 20.3117 43.2634 20.4239 42.8858Z" fill="#561FDB"/>
<path d="M35.428 20.9052C36.3027 24.6235 34.4759 28.6446 31.0712 30.3396C28.7869 31.4768 26.5622 32.4857 24.5927 34.1574C22.5177 35.9184 21.0388 38.2981 20.2006 40.875C19.7651 42.2134 19.5115 43.601 19.4232 45.0051C19.4137 45.1544 19.3218 47.5851 19.4471 47.5881C19.4564 47.5884 19.4458 47.0978 19.5325 46.3889C19.5757 46.0358 19.6782 45.34 20.1247 43.8834C20.3686 43.0886 20.5626 42.4559 20.8844 41.6848C21.5433 40.1067 22.2935 39.0134 22.8129 38.2657C23.3671 37.4677 24.3451 36.0782 25.996 34.6159C26.3665 34.2878 27.7022 33.1046 29.1995 32.3324C29.8146 32.0152 30.5757 31.6404 30.5757 31.6404C31.4411 31.214 31.6088 31.1482 32.0967 30.8892C32.7909 30.5209 33.138 30.3366 33.5408 30.0436C33.8583 29.8125 34.4294 29.36 34.998 28.6601C35.462 28.089 35.7278 27.5954 35.8572 27.3342C36.0983 26.8477 36.1681 26.5579 36.191 26.4544C36.2891 26.0119 36.2673 25.6569 36.2488 25.415C36.1534 24.1617 35.9249 23.0367 35.8047 22.4536C35.5049 20.9981 35.4198 20.8706 35.428 20.9052Z" fill="#561FDB"/>
<path d="M41.9282 16.2829C41.9216 16.305 41.9211 16.3297 41.9208 16.3531C41.9176 16.8048 41.901 17.2875 41.7311 17.7121C41.6365 17.9546 41.4968 18.1774 41.3362 18.3813C41.3057 18.4199 41.2745 18.4577 41.2424 18.4952C41.0032 18.7743 40.7219 19.0173 40.418 19.2233C40.0913 19.4449 39.7366 19.6224 39.3745 19.7786C38.9992 19.9404 38.6162 19.9866 38.2093 19.9705C37.5211 19.9428 36.8182 19.7781 36.221 19.4272C36.0955 19.3533 35.974 19.2728 35.8541 19.1899C35.8027 19.1543 35.7288 19.0793 35.6652 19.0668C35.6603 19.0657 35.6519 19.0611 35.6478 19.0668C35.6233 19.0999 35.9427 19.4022 36.2944 19.6531C36.8467 20.0469 37.482 20.3201 38.1476 20.4506C38.5618 20.5318 38.9886 20.5729 39.4107 20.5544C39.7548 20.5394 40.1302 20.4891 40.4264 20.3C40.4884 20.2603 40.5468 20.2141 40.5969 20.16C40.6458 20.1075 40.7518 19.979 40.9456 19.7852C41.1736 19.5569 41.2777 19.5085 41.5147 19.269C41.6838 19.0983 41.7588 19.0048 41.8444 18.892C42.0662 18.5993 42.1543 18.3201 42.1997 18.1821C42.1997 18.1821 42.4835 17.4446 42.2451 16.6858C42.2144 16.5885 42.1932 16.4871 42.1491 16.3944C42.1231 16.3395 42.017 16.1563 41.9431 16.2525C41.9363 16.2615 41.9317 16.2718 41.9282 16.2829Z" fill="#561FDB"/>
<path d="M28.0461 14.2225C28.0363 14.2007 28.3755 13.9463 28.7841 13.8447C29.4315 13.6838 30.1078 13.9422 30.6321 14.3168C31.1159 14.6623 31.4431 15.1705 31.6663 15.7139C31.9098 16.307 31.9637 17.1281 32.4929 17.5586C32.6241 17.6654 32.7584 17.7801 32.9125 17.8438C32.9653 17.8655 33.32 17.9373 33.3675 17.9498C33.3871 17.9549 33.1563 17.9666 32.9816 17.9209C32.7013 17.8476 32.5192 17.6918 32.4119 17.6021C32.2034 17.4279 32.086 17.2537 31.9984 17.121C31.8685 16.9245 31.7949 16.7511 31.6527 16.4121C31.5054 16.061 31.5182 16.0384 31.3931 15.7609C31.2773 15.504 31.2053 15.3442 31.0653 15.1474C30.8887 14.899 30.7084 14.7392 30.6261 14.6704C30.553 14.6093 30.3132 14.4155 29.9463 14.2643C29.6261 14.1322 29.3489 14.0901 29.1877 14.0741C29.0686 14.0624 28.8515 14.0423 28.5767 14.0847C28.2549 14.1344 28.0532 14.2388 28.0461 14.2225Z" fill="#561FDB"/>
<path d="M36.2641 18.0952C36.213 18.1172 36.9839 17.9862 37.7131 17.3012C37.8923 17.133 38.082 16.9598 38.4217 16.5494C38.8612 16.0188 38.8691 15.9816 39.1746 15.6446C39.5897 15.1863 39.8979 14.846 40.4127 14.5804C40.9813 14.2874 41.5943 14.1749 42.2115 14.3967C42.6228 14.5446 42.9848 14.8264 43.2289 15.1888C43.2371 15.2007 43.2468 15.214 43.2612 15.2157C43.28 15.2178 43.2939 15.1996 43.3031 15.183C43.361 15.0803 43.3952 14.9656 43.4145 14.8493C43.4374 14.7128 43.4398 14.5709 43.4012 14.4383C43.3123 14.1331 43.0226 13.927 42.725 13.8159C42.2403 13.6346 41.6986 13.6435 41.1974 13.7726C40.4518 13.9648 39.6987 14.3964 39.1504 14.9362C38.8618 15.2206 38.6147 15.5467 38.3704 15.8688C38.2046 16.0876 38.039 16.3067 37.8749 16.5269C37.7066 16.7522 37.5528 17.0033 37.366 17.2132C37.054 17.5652 36.7023 17.906 36.2641 18.0952Z" fill="#561FDB"/>
<path d="M32.8848 21.2442C32.8196 21.2901 31.2358 23.8951 28.9401 25.3153C27.6213 26.1313 27.0252 26.2107 24.3292 26.8874C22.0139 27.4688 18.7528 27.483 16.8923 29.1728C16.5579 29.4764 16.1133 30.0602 16.0804 30.0872C16.0304 30.1279 16.2951 29.9146 16.5049 29.7642C17.104 29.3348 17.5949 29.0812 18.1268 28.8436C18.9118 28.493 19.6046 28.3085 20.0787 28.2073C20.3562 28.1481 21.2129 27.9785 22.2879 27.9866C22.598 27.9891 22.6622 28.0043 23.0519 28.0021C23.8785 27.9975 24.4952 27.9241 24.6866 27.8999C25.0848 27.8496 25.6121 27.7831 26.272 27.5947C26.6333 27.4917 27.4 27.2476 28.2842 26.7407C28.4579 26.6409 29.2516 26.1783 30.1282 25.3501C30.4125 25.0816 30.9213 24.5703 31.4456 23.8416C31.8922 23.2208 32.2844 22.5331 32.4437 22.1564C32.4752 22.0816 32.5698 21.8922 32.6943 21.6204C32.8261 21.3328 32.9093 21.2271 32.8848 21.2442Z" fill="#6A3DF9"/>
<path d="M15.1377 9.87465C15.5074 9.50581 15.9064 9.14702 16.3924 8.9554C17.2051 8.63494 18.2045 8.86788 18.7919 9.51423C19.2765 10.0475 19.4657 10.7882 19.5252 11.5063C19.6027 12.437 19.5744 13.3755 19.6407 14.3075C19.6559 14.522 19.6725 14.7365 19.6896 14.9509C19.8478 16.9362 20.5317 18.9408 21.823 20.4781C22.7151 21.54 24.0611 22.6593 25.5166 22.4533C26.0711 22.3748 26.6373 21.9396 27.0159 21.527C26.861 22.1059 26.3671 22.5626 25.8039 22.7678C25.2407 22.973 24.6305 22.9697 24.0611 22.7825C23.4917 22.5955 22.9573 22.2326 22.4955 21.8504C21.8255 21.2962 21.2503 20.6287 20.7962 19.8877C20.3327 19.1316 20.0563 18.3229 19.7965 17.4812C19.56 16.716 19.3333 15.9416 19.2564 15.1433C19.168 14.2265 19.1251 13.3054 19.1278 12.3842C19.1292 11.9358 19.1411 11.4848 19.0732 11.0415C19.0052 10.5982 18.8514 10.1571 18.5578 9.81811C18.0939 9.28184 17.3295 9.07228 16.6247 9.15137C16.0648 9.2147 15.5122 9.45308 15.1377 9.87465Z" fill="#6A3DF9"/>
<path d="M42.326 44.469C41.9507 44.812 41.7601 45.1835 41.6669 45.3695C41.6319 45.4396 41.4777 45.7527 41.3761 46.2012C41.3272 46.4165 41.2326 46.8508 41.2932 47.4113C41.3209 47.6662 41.3742 48.1161 41.6525 48.6075C42.0518 49.3126 42.65 49.6371 42.8642 49.7499C43.3554 50.0081 43.7799 50.0625 44.12 50.1062C44.4646 50.1505 45.2183 50.2383 46.1012 49.9222C46.3863 49.8203 46.8557 49.6518 47.2998 49.2373C47.6513 48.9095 47.8671 48.5406 47.8897 48.5015C48.0492 48.2242 48.1476 47.9826 48.1438 48.0079C48.1302 48.0949 48.1049 48.4433 47.9541 48.8127C47.6488 49.5599 47.0604 49.9777 46.8533 50.1206C45.784 50.8597 44.582 50.7268 44.2262 50.6873C43.7231 50.6316 42.4473 50.4908 41.5992 49.4012C40.786 48.3561 40.9186 47.1487 40.9561 46.8068C40.9939 46.4621 41.0991 45.5059 41.8281 44.8011C42.1535 44.4866 42.5824 44.2502 42.5981 44.2412C42.6033 44.239 42.4717 44.3358 42.326 44.469Z" fill="url(#paint13_linear_43_21832)"/>
<path d="M6.82531 15.671C6.82503 15.6691 6.82476 15.6674 6.82422 15.6655C6.96474 16.4067 7.26373 17.1447 7.55538 17.8375C7.85545 18.5508 8.21152 19.2403 8.61923 19.8981C9.42459 21.1979 10.4395 22.3707 11.6874 23.2631C12.9616 24.1742 14.4421 24.808 15.9931 25.0461C16.8533 25.1782 17.7234 25.1945 18.5839 25.0744C19.395 24.961 20.1427 24.7939 20.8655 24.3875C20.9283 24.3522 20.9875 24.3117 21.0489 24.2736C20.5765 24.8107 19.8576 25.038 19.1786 25.1728C18.3711 25.3331 17.541 25.3788 16.7199 25.3244C15.6261 25.2521 14.5449 25.0026 13.5256 24.6001C12.7955 24.312 12.2603 24.0092 12.016 23.8648C11.1112 23.3305 10.5077 22.7896 10.299 22.5966C9.72195 22.063 9.34495 21.5847 9.19437 21.3868C8.22103 20.1074 7.58066 18.5385 7.1474 16.9985C7.02345 16.5584 6.91065 16.12 6.82531 15.671Z" fill="#561FDB"/>
</g>
<defs>
<linearGradient id="paint0_linear_43_21832" x1="15.1924" y1="61.3736" x2="70.7844" y2="-31.3669" gradientUnits="userSpaceOnUse">
<stop offset="0.3154" stop-color="#8618FB"/>
<stop offset="0.357" stop-color="#851CFA"/>
<stop offset="0.3984" stop-color="#8228F9"/>
<stop offset="0.4397" stop-color="#7D3CF5"/>
<stop offset="0.481" stop-color="#7658F1"/>
<stop offset="0.5222" stop-color="#6D7CEB"/>
<stop offset="0.5628" stop-color="#62A7E5"/>
<stop offset="0.587" stop-color="#5BC5E0"/>
</linearGradient>
<linearGradient id="paint1_linear_43_21832" x1="4.87425" y1="31.5309" x2="49.3894" y2="31.5309" gradientUnits="userSpaceOnUse">
<stop stop-color="#67B3F2" stop-opacity="0.9"/>
<stop offset="0.1486" stop-color="#67B0F2" stop-opacity="0.9212"/>
<stop offset="0.2669" stop-color="#66A6F2" stop-opacity="0.9381"/>
<stop offset="0.3747" stop-color="#6495F2" stop-opacity="0.9534"/>
<stop offset="0.4764" stop-color="#627DF3" stop-opacity="0.9679"/>
<stop offset="0.5737" stop-color="#605FF3" stop-opacity="0.9818"/>
<stop offset="0.6665" stop-color="#5C3AF4" stop-opacity="0.9951"/>
<stop offset="0.7011" stop-color="#5B2AF4"/>
</linearGradient>
<linearGradient id="paint2_linear_43_21832" x1="12.6965" y1="15.0317" x2="26.2756" y2="15.0317" gradientUnits="userSpaceOnUse">
<stop stop-color="#6C45F3"/>
<stop offset="0.6793" stop-color="#67B3F2" stop-opacity="0.7"/>
</linearGradient>
<linearGradient id="paint3_linear_43_21832" x1="6.58017" y1="16.749" x2="21.4638" y2="16.749" gradientUnits="userSpaceOnUse">
<stop offset="0.31" stop-color="#6C45F3"/>
<stop offset="0.7729" stop-color="#67B3F2" stop-opacity="0.5"/>
</linearGradient>
<linearGradient id="paint4_linear_43_21832" x1="40.4393" y1="39.8651" x2="52.7183" y2="39.8651" gradientUnits="userSpaceOnUse">
<stop stop-color="#67B3F2"/>
<stop offset="0.4566" stop-color="#6A6CF3"/>
<stop offset="0.7003" stop-color="#6C45F3"/>
</linearGradient>
<linearGradient id="paint5_linear_43_21832" x1="50.1374" y1="37.028" x2="68.5983" y2="37.028" gradientUnits="userSpaceOnUse">
<stop stop-color="#67B3F2" stop-opacity="0.5"/>
<stop offset="0.132" stop-color="#67B0F2" stop-opacity="0.616"/>
<stop offset="0.237" stop-color="#68A6F2" stop-opacity="0.7083"/>
<stop offset="0.3327" stop-color="#6895F2" stop-opacity="0.7925"/>
<stop offset="0.423" stop-color="#697DF2" stop-opacity="0.8718"/>
<stop offset="0.5085" stop-color="#6B5FF3" stop-opacity="0.947"/>
<stop offset="0.5688" stop-color="#6C45F3"/>
</linearGradient>
<linearGradient id="paint6_linear_43_21832" x1="40.9493" y1="25.0392" x2="69.0797" y2="25.0392" gradientUnits="userSpaceOnUse">
<stop offset="0.1231" stop-color="#67B3F2" stop-opacity="0.1"/>
<stop offset="0.2591" stop-color="#67B0F2" stop-opacity="0.3088"/>
<stop offset="0.3673" stop-color="#68A6F2" stop-opacity="0.4749"/>
<stop offset="0.466" stop-color="#6895F2" stop-opacity="0.6265"/>
<stop offset="0.5589" stop-color="#697DF2" stop-opacity="0.7692"/>
<stop offset="0.6471" stop-color="#6B5FF3" stop-opacity="0.9046"/>
<stop offset="0.7092" stop-color="#6C45F3"/>
</linearGradient>
<linearGradient id="paint7_linear_43_21832" x1="25.5775" y1="15.6877" x2="13.9362" y2="8.96654" gradientUnits="userSpaceOnUse">
<stop stop-color="white" stop-opacity="0"/>
<stop offset="0.6788" stop-color="white"/>
</linearGradient>
<linearGradient id="paint8_linear_43_21832" x1="7.33026" y1="17.3093" x2="17.9019" y2="17.3093" gradientUnits="userSpaceOnUse">
<stop stop-color="white" stop-opacity="0.5"/>
<stop offset="0.5164" stop-color="white" stop-opacity="0.954"/>
<stop offset="0.5688" stop-color="white"/>
</linearGradient>
<linearGradient id="paint9_linear_43_21832" x1="43.668" y1="20.9595" x2="60.3329" y2="20.9595" gradientUnits="userSpaceOnUse">
<stop stop-color="white" stop-opacity="0.9"/>
<stop offset="0.6366" stop-color="white" stop-opacity="0.5368"/>
<stop offset="0.7011" stop-color="white" stop-opacity="0.5"/>
</linearGradient>
<linearGradient id="paint10_linear_43_21832" x1="48.2909" y1="41.5208" x2="52.746" y2="41.5208" gradientUnits="userSpaceOnUse">
<stop stop-color="white" stop-opacity="0"/>
<stop offset="0.8221" stop-color="white" stop-opacity="0.6928"/>
<stop offset="0.9493" stop-color="white" stop-opacity="0.8"/>
</linearGradient>
<linearGradient id="paint11_linear_43_21832" x1="46.2099" y1="26.9888" x2="68.0804" y2="26.9888" gradientUnits="userSpaceOnUse">
<stop stop-color="#5A32BD" stop-opacity="0.8"/>
<stop offset="0.5551" stop-color="#5A37BE" stop-opacity="0.5547"/>
<stop offset="0.6788" stop-color="#5A39BF" stop-opacity="0.5"/>
</linearGradient>
<linearGradient id="paint12_linear_43_21832" x1="49.1013" y1="11.6798" x2="52.3018" y2="14.8412" gradientUnits="userSpaceOnUse">
<stop stop-color="#5A32BD" stop-opacity="0.8"/>
<stop offset="0.5551" stop-color="#5A37BE" stop-opacity="0.5547"/>
<stop offset="0.6788" stop-color="#5A39BF" stop-opacity="0.5"/>
</linearGradient>
<linearGradient id="paint13_linear_43_21832" x1="40.9248" y1="47.4824" x2="48.1441" y2="47.4824" gradientUnits="userSpaceOnUse">
<stop stop-color="#67B3F2"/>
<stop offset="0.4566" stop-color="#6A6CF3"/>
<stop offset="0.7003" stop-color="#6C45F3"/>
</linearGradient>
<clipPath id="clip0_43_21832">
<rect width="72" height="60.4515" fill="white" transform="translate(0.423828)"/>
</clipPath>
</defs>
</svg>
