<?xml version="1.0" encoding="utf-8"?>
<!-- Generator: Adobe Illustrator 26.1.0, SVG Export Plug-In . SVG Version: 6.00 Build 0)  -->
<svg version="1.1" id="Layer_1" xmlns="http://www.w3.org/2000/svg" xmlns:xlink="http://www.w3.org/1999/xlink" x="0px" y="0px"
	 viewBox="0 0 2693.33 2261.33" style="enable-background:new 0 0 2693.33 2261.33;" xml:space="preserve">
<style type="text/css">
	.st0{fill:url(#SVGID_1_);}
	.st1{fill:url(#SVGID_00000089572866875158777280000004303679809021125536_);}
	.st2{fill:url(#SVGID_00000058581663257889258050000003510240610576544385_);}
	.st3{fill:url(#SVGID_00000150075536410590851700000013227538241266131343_);}
	.st4{fill:url(#SVGID_00000114062674356838122030000014989585798417581735_);}
	.st5{fill:url(#SVGID_00000022550368400518711190000004345818442705035683_);}
	.st6{fill:url(#SVGID_00000073681110213864189440000014222006135902874557_);}
	.st7{fill:#6222DD;}
	.st8{fill:#E3DCFF;}
	.st9{fill:url(#SVGID_00000127040571439482407260000012650688128510909832_);}
	.st10{fill:url(#SVGID_00000154419234334491705970000003462953687509264315_);}
	.st11{fill:url(#SVGID_00000142876496992654104100000004739611710394480287_);}
	.st12{fill:url(#SVGID_00000062161348191947786120000007289027165206151600_);}
	.st13{fill:#561FDB;}
	.st14{fill:url(#SVGID_00000011019240396272619450000015800846780844685752_);}
	.st15{fill:#0E0ECC;}
	.st16{fill:url(#SVGID_00000146486735501766195720000001175306542486357893_);}
	.st17{fill:#6A3DF9;}
	.st18{fill:url(#SVGID_00000002364415256359290560000000913146837466508430_);}
</style>
<g>
	<linearGradient id="SVGID_1_" gradientUnits="userSpaceOnUse" x1="545.7161" y1="2258.5872" x2="2590.9946" y2="-1153.4187">
		<stop  offset="0.3154" style="stop-color:#8618FB"/>
		<stop  offset="0.357" style="stop-color:#851CFA"/>
		<stop  offset="0.3984" style="stop-color:#8228F9"/>
		<stop  offset="0.4397" style="stop-color:#7D3CF5"/>
		<stop  offset="0.481" style="stop-color:#7658F1"/>
		<stop  offset="0.5222" style="stop-color:#6D7CEB"/>
		<stop  offset="0.5628" style="stop-color:#62A7E5"/>
		<stop  offset="0.587" style="stop-color:#5BC5E0"/>
	</linearGradient>
	<path class="st0" d="M1131.75,404.37c14.51-27.31,20.05-52.13,20.05-52.13c3.76-16.81,13.2-35,32.08-71.39
		c45.04-86.77,122.92-163.87,211.75-205.33c36.65-17.11,114.56-46.8,214.15-36.9c31.45,3.13,95.83,10.27,164.42,53.74
		c20.61,13.06,76.51,51.51,117.9,124.32c15.96,28.08,60.08,108.36,44.92,213.35c-11.67,80.75-52.34,134.2-72.19,159.61
		c-48.49,62.11-104.41,92.35-142.77,113.09c-16.87,9.12-102.93,41.85-126.19,49.19c0,0-3.55,1.12-8.29,3.21
		c-11.31,4.99-27.99,14.9-26.47,20.85c0.61,2.37,3.92,3.42,5.88,4.01c33.56,10.09,55.61,9.89,55.61,9.89
		c15.08-0.19,22.61-0.29,36.09-2.14c13.16-1.8,44.15-6.93,100.53-29.94c25.48-10.4,23.77-11.24,75.39-33.69
		c16.4-7.13,34.16-14.85,46.52-19.78c21.78-8.69,64.97-24.73,122.45-31.55c22.9-2.72,48.36-5.57,82.08-1.6
		c35.91,4.23,61.8,13.91,67.37,16.04c17.05,6.52,59.21,23.2,96.25,64.43c11.14,12.4,27.87,31.38,39.03,60.96
		c11.96,31.69,13.24,64.21,13.37,68.18c0.24,7.5,0.36,24.24,2.67,47.86c1.01,10.25,1.54,15.49,2.94,21.12
		c2.49,9.98,7.12,28.54,23.26,41.97c15.19,12.64,32.46,13.98,39.57,14.44c25.61,1.64,44.22-10.47,51.33-15.24
		c7.62-5.11,26.67-19.59,35.29-45.99c6.18-18.94,4.01-34.85,2.67-43.85c-3.69-24.91-15.18-41.78-21.66-51.07
		c-15.97-22.9-35.42-35.73-43.58-40.64c-16.25-9.77-29.52-13.18-28.87-15.77c0.74-2.97,18.91-1.59,33.15,1.07
		c11.77,2.2,42.26,9.25,74.86,33.95c13.14,9.95,52.33,40.53,69.51,97.05c11.1,36.5,7.94,67.11,6.15,79.4
		c-7.57,51.9-35.67,85.05-47.05,98.12c-32.3,37.08-68.96,52.05-84.75,58.28c-31,12.24-56.37,14.28-62.56,14.7
		c-9.02,0.62-37.79,1.98-72.99-8.56c-55.16-16.52-102.67-55.32-132.93-103.96c-24.47-39.33-33-116.23-91.26-119.22
		c-56.89-2.92-109.57,26.85-151.73,62.42c-26.1,22.02-48.55,47.5-70.74,73.36c-3.26,3.8-6.67,8.02-6.88,13.03
		c-0.3,7.18,9.08,13.76,13.95,17.59c27.29,21.42,56.49,39.83,82.88,62.59c86.19,74.33,151.77,169.93,257.18,220.3
		c58.44,27.92,127.05,42.02,188.66,15.77c67.25-28.65,99.96-90.62,118.06-157.92c11.9-44.26,14.69-79.14,17.65-78.87
		c0.97,0.09,1.1,3.87,2.41,15.24c1.89,16.54,2.25,14.15,4.81,34.22c2.98,23.3,4.88,45.15,5.35,51.6
		c4.98,68.7-15.77,125.12-15.77,125.12c-4.98,13.54-24.58,63.27-73.79,107.21c-51.62,46.09-106.28,59.44-141.7,67.64
		c-71.36,16.52-128.64,7.47-157.21,2.67c0,0-55.2-9.28-123.25-40.37c-22.52-10.29-46.03-25.78-47.59-27.54
		c-0.12-0.13-1.2-1.42-1.6-1.2c-0.24,0.13-0.13,0.76-0.1,0.94c0.72,4.31-0.14,8.81,0.7,13.1c1.65,8.39,0.91,43.58-0.1,64.33
		c-0.49,10.1-1.3,26.28-3.81,46.12c-2.03,16.05-6.28,48.46-19.25,88.03c-6.82,20.82-16.6,50.01-37.9,84.02
		c-23.94,38.22-50.01,62.69-61.96,73.19c-15.43,13.56-46.51,40.36-95.25,58.15c-19.02,6.94-49.31,17.67-90.23,16.44
		c-13.46-0.4-42.75-2.54-76.8-16.44c-35.91-14.66-59.01-35.03-68.18-43.71c-11.13-10.54-35.05-33.71-50.13-72.39
		c-4.99-12.81-13.61-35.59-12.63-66.17c0.23-7.13,1.91-43.74,26.47-81.61c31.54-48.65,78.39-64.77,91.84-69.18
		c9.14-3,23.67-7.62,43.31-7.62c32.62,0.01,60.36,12.78,59.95,14.44c-0.13,0.53-3.16,0.1-6.27-0.15
		c-22.07-1.8-40.75,5.75-48.73,8.97c-9.36,3.78-30.93,12.83-47.12,35.49c-3.82,5.34-24.98,34.97-16.64,72.59
		c0.88,3.97,5.64,24.05,23.26,41.91c3.09,3.14,22.99,22.73,54.14,26.07c5.94,0.64,14.95,1.52,26.07-1.4
		c19.5-5.13,31.04-18.16,36.29-24.26c5.66-6.57,16.17-20.79,21.86-50.73c1.46-7.69,7.71-43.32-5.81-95.65
		c-3.7-14.33-15.24-54.4-45.32-97.65c-43.21-62.13-92.83-85.01-96.57-88.89c-0.17-0.18-1.09-1.19-1.8-0.95
		c-0.57,0.19-0.74,1.07-0.79,1.27c-1.51,6.77-6.43,12.38-8.49,19c-2.14,6.88-7.81,15.6-19.15,33.04
		c-6.55,10.08-15.54,23.8-29.08,40.1c-16.74,20.16-29.89,31.47-46.72,46.92c-32.51,29.83-53.62,49.21-74.39,74.39
		c-12.94,15.69-34.56,42.27-52.4,81.81c-4.16,9.23-22.01,49.95-27.81,107.48c-6.63,65.81,5.99,119.08,15.51,149.19
		c17.59,55.67,44.37,94.78,60.42,115.5c15.83,20.42,39.5,50.43,79.67,75.93c43.01,27.3,91.72,41.07,90.37,45.12
		c-0.25,0.74-2,0.72-7.39,0.43c-30.85-1.66-48.02-4.51-48.02-4.51c-15.44-2.57-23.16-3.85-31.38-5.65
		c-10.01-2.19-42.98-9.87-83.21-28.47c-8.41-3.89-40.69-19.15-79-47.32c-46.32-34.07-75.23-67.74-82.01-75.8
		c-59.08-70.15-79.83-143.79-88.16-174.58c-20.79-76.82-23.49-155.86-5.92-233.44c14.08-62.2,40.53-120.72,70.93-176.51
		c15.53-28.5,32.31-56.25,48.93-84.12c7.31-12.25,11.99-23.93,16.37-37.56c1.7-5.27,8.68-46.68,11.33-47.62
		c-18.2,6.46-36.41,12.56-54.12,20.31c-49.21,21.45-73.82,32.18-89.83,40.3c-25.25,12.81-77.6,39.69-137.82,85.69
		c-27.47,20.98-58.27,44.51-93.04,83.01c-50.45,55.87-77.43,108.02-91.84,136.35c-16.23,31.9-29.64,58.27-39.7,97.45
		c-16.92,65.88-11.76,118.91-10.03,133.95c2.28,19.72,9.59,68.41,37.7,123.12c11.23,21.85,30.7,59.75,68.98,94.24
		c10.49,9.45,41.17,35.57,40.1,36.9c-0.06,0.08-0.23,0.05-4.81-1.4c-4.36-1.39-5.01-1.6-5.01-1.6c-6.73-2.24-12.43-4.09-14.54-4.81
		c-6.44-2.2-20.42-7.96-34.39-15.04c-32.47-16.44-59.75-36.9-59.75-36.9c-9.03-6.77-43.33-33.12-78.2-78.1
		c-11.76-15.16-40.76-54.61-63.76-112.89c-28.15-71.32-31.64-131.13-33.29-164.02c-4.26-85.21,11.73-149.61,22.06-189.89
		c18.85-73.48,44.39-124.52,65.97-167.63c16.64-33.24,44.36-84.05,77.2-123.32c32-38.27,69.87-66.79,70.38-67.17
		c0.68-0.5,1.34-1.03,2.04-1.5c1.43-0.98,1.84-1.13,1.8-1.34c-0.1-0.58-3.31-0.24-7.75-0.6c-2.29-0.19-3.65-0.46-5.01-0.67
		c-5.17-0.8-15.43-1.5-26.27-1.74c-4.66-0.1-15.66-0.33-27.81,0.4c-6.05,0.36-28.99,1.96-58.35,9.76
		c-32.83,8.72-56.23,20.57-62.83,24c-25.94,13.49-43.45,27.56-59.09,40.27c-9.44,7.68-9.44,8.3-42.01,38.1
		c-29.09,26.61-43.84,40.08-53.94,48.12c-22.19,17.67-36.98,29.45-60.26,40.5c-15.47,7.35-43.12,20.13-80.81,20.65
		c-16.79,0.23-29.42-2.05-36.69-3.41c-8.51-1.59-43.82-8.73-81.34-33.75c-17.95-11.97-63.21-43.09-85.82-104.27
		c-6.25-16.91-20.68-62.91-6.95-117.9c4.64-18.58,13.23-53.01,44.38-81.54c29.05-26.61,60.99-32.75,67.91-33.95
		c0,0,37.73-6.57,74.06,8.56c2.23,0.93,8.8,3.66,8.56,4.41c-0.15,0.47-2.96-0.04-3.48-0.13c-6.8-1.18-25.5,0.88-41.98,8.02
		c-22.55,9.78-35.12,26.56-40.91,34.49c-6.5,8.91-18.31,25.09-20.32,49.33c-0.64,7.69-2.01,27.69,10.16,48.12
		c14.2,23.85,37.33,32.3,47.19,35.02c5.32,1.47,28.65,7.92,50.93-2.94c4.98-2.43,8.24-4.91,13.9-9.22
		c17.3-13.17,27.54-27.01,31.15-31.82c14.75-19.63,32.16-37.11,47.99-55.88c22.83-27.06,34.25-40.58,48.12-56.55
		c12.85-14.78,25.64-29.23,35.42-40.91c6.62-7.9,19.57-23.72,20.59-24.33c0.07-0.04,0.64-0.35,0.79-0.92c0,0,0.07-0.29-0.01-0.61
		c-0.31-1.16-9.13-1.96-13.69-2.71c-2.03-0.33-2.05-0.47-8.82-2.29c-9.31-2.5-15.54-3.94-18.25-4.61
		c-15.27-3.8-38.2-13.29-43.81-15.64c-24.28-10.18-41.95-19.98-46.72-22.66c-9.72-5.46-29.63-17.14-52.94-35.09
		c-10.28-7.92-34.64-27.4-61.56-57.35c-9.05-10.06-24.33-27.21-40.3-51.53c-27.18-41.4-39.51-77.98-46.32-98.65
		c-19.58-59.42-22.27-108.23-22.86-124.32c-1.99-54.26,6.77-94.79,15.44-134.95c7.56-34.98,14.1-51.85,16.04-56.75
		c6.42-16.16,20.85-48.22,49.33-81.61c36.4-42.68,78.51-67.32,79.81-65.77c0.38,0.45-2.61,3.26-6.62,7.62
		c-17.62,19.17-26.81,37.68-33.49,51.13c-2.97,5.98-17.19,35.28-23.86,77.8c-7.12,45.38-1.72,80.82,1.4,100.26
		c8.57,53.36,27.28,91.13,32.48,101.26c29.7,57.84,69.11,91.35,89.43,108.28c44.28,36.88,85.34,54.22,114.29,66.17
		c0,0,59.32,24.49,147.5,36.48c8.02,1.09,35.08,9.06,36.25-1.51c1.1-9.87-13.45-26.5-17.48-35.33c-4.5-9.86-9.28-19.7-13.17-29.82
		c-18.94-49.15-28.2-101.53-30.14-154.06c-0.98-26.59-0.14-53.24,2.07-79.75c1.97-23.66,7.1-46.31-1.35-69.32
		c-6.43-17.51-17.82-30.92-37.31-33.56c-15.05-2.04-31.41,2.75-43.43,11.9c-17.69,13.45-22.83,32.75-25.93,44.38
		c-1.68,6.3-6.81,26.38-2.41,50.26c1.84,10,6.18,25.11,3.48,26.2c-0.58,0.23-1.28-0.25-1.72-0.57
		c-16.15-11.51-16.28-11.64-16.84-12.18c-11.17-10.79-10.31-9.86-11.03-10.63c-2.4-2.57-14.37-15.54-23.49-31.28
		c-15.45-26.65-19.49-55.66-20.59-65.5c-1.91-17.22-6.04-54.38,14.17-93.84c19.61-38.29,50.77-56.58,63.63-63.9
		c56.15-31.96,112.35-21.32,129.13-17.38c37.48,8.8,62.18,27.39,70.05,33.69c32.67,26.12,47.31,57.7,55.88,76.2
		c9.16,19.76,14.36,38.18,18.98,54.54c4.06,14.36,6.59,26.52,11.5,50.26c9.6,46.47,8.83,50.38,15.77,79.67
		c7.67,32.33,13.88,49.81,16.04,55.74c4.29,11.78,9.12,24.89,17.85,41.31c14.52,27.33,29.61,44.61,33.09,48.53
		c6.79,7.66,14.61,16.37,27.06,25.66c24.12,18.01,47.17,23.29,76.12,28.32c11.69,2.03,0.57-14.4-1.77-18
		c-41.57-64.09-56.55-146.27-31.43-219.85c3.02-8.84,9.6-27.3,27.27-38.7c8.94-5.77,17.76-7.83,25.47-9.62
		c14.25-3.33,17.39-0.97,38.1-3.61c14.43-1.84,21.86-2.85,31.28-7.22c14.07-6.53,20.99-15.18,22.86-17.65
		C1129.53,408.47,1131.02,405.75,1131.75,404.37z"/>
	
		<linearGradient id="SVGID_00000039110577912587390540000004756826828940979604_" gradientUnits="userSpaceOnUse" x1="166.1083" y1="1160.6548" x2="1803.8611" y2="1160.6548">
		<stop  offset="0" style="stop-color:#67B3F2;stop-opacity:0.9"/>
		<stop  offset="0.1486" style="stop-color:#67B0F2;stop-opacity:0.9212"/>
		<stop  offset="0.2669" style="stop-color:#66A6F2;stop-opacity:0.9381"/>
		<stop  offset="0.3747" style="stop-color:#6495F2;stop-opacity:0.9534"/>
		<stop  offset="0.4764" style="stop-color:#627DF3;stop-opacity:0.9679"/>
		<stop  offset="0.5737" style="stop-color:#605FF3;stop-opacity:0.9818"/>
		<stop  offset="0.6665" style="stop-color:#5C3AF4;stop-opacity:0.9951"/>
		<stop  offset="0.7011" style="stop-color:#5B2AF4"/>
	</linearGradient>
	<path style="fill:url(#SVGID_00000039110577912587390540000004756826828940979604_);" d="M1558.9,1130.65
		c0.25-31.76,0.52-65.13-16.84-102.26c-16.03-34.29-33.86-43.48-64.97-99.59c-14.76-26.63-22.23-40.34-26.74-59.89
		c-2.79-12.1-14.06-61.03,10.69-102.13c6.35-10.54,13.95-18.71,28.87-34.76c22.64-24.34,26.82-22.82,36.9-37.43
		c17.62-25.56,23.14-58.57,11.66-87.81c-1.17-2.99-2.6-6.04-5.13-8.03c-1.04-0.81-2.73-1.34-3.53-0.29c-0.3,0.4-0.38,0.92-0.43,1.42
		c-0.58,5.26,0.13,10.43-0.17,15.67c-0.87,26.4-8.96,50.38-27.79,69.34c-17.46,17.58-39.56,31.84-61.8,42.56
		c-15.95,7.69-35.19,9.11-52.63,8.09c-34.24-2-67.9-15.9-94.14-37.88c-3.09-2.59-6.09-5.31-8.97-8.14
		c-7.1-6.98-13.83-14.68-19.35-23c-1.9-2.87-6.33-8.49-3.81-11.47c6.36,2.54,12.03,6.78,18.55,9.22c30.49,11.41,65.31-2.05,90.24-23
		c24.92-20.94,43.07-48.67,65.21-72.54c19.55-21.07,44.09-39.92,72.7-42.71c27.47-2.68,55.92,11.21,70.7,34.52
		c9.71-11.66,7.2-29.53-0.16-42.8c-16.81-30.32-54.42-44.95-88.96-41.88s-66.14,21.02-93.15,42.77
		c-27.01,21.75-50.51,47.51-76.95,69.95c5.41-79.98,31.54-158.48,75.15-225.74c51.01-78.68,127.45-142.4,217.18-169.63
		c60.47-18.35,124.56-19.9,187.83-19.19c3.77,0.04,6.06-4.11,4.05-7.3c-8.18-12.98-22.47-21.8-36.44-28.88
		c-114.82-58.23-258.66-52.79-370.62,10.76c-111.96,63.55-189.79,182.36-207.05,309.94c-3.88,28.7-4.78,58.58,4.64,85.97
		c4.04,11.72,9.96,24.37,5.46,35.92c-25.58-11.15-41.69-36.23-61.84-55.55c-16.67-15.98-37.64-28.69-60.65-30.61
		c-23.01-1.93-47.92,8.87-58.08,29.61c39.27-15.36,88.24-0.02,111.73,35c13.13,19.58,18.41,43.33,29.34,64.22
		c10.93,20.89,31.25,40.22,54.71,37.92c-0.89,0.09-5.46,10.09-6.3,11.37c-2.72,4.2-5.77,8.18-9.1,11.92
		c-6.67,7.47-14.46,13.93-23.03,19.11c-8.58,5.19-17.51,7.57-26.7,11.15c-9.98,3.89-18.89,8.42-29.98,9.2
		c-6.48,0.45-13.97-1.37-19.5,3.02c-5.51,4.37-2.89,10.47-1.66,16.25c8.75,41.33-8.43,78.61-36.5,108.14
		c-21.81,22.94-48.33,41.47-77.48,53.84c-37.45,15.89-77.31,24.87-117.06,32.81c-39.14,7.82-77.75,16.68-116.37,26.23
		c-77.47,19.17-147.27,59.26-208.49,109.87c-19.22,15.89-37.11,33.34-53.56,52.08c-45.2,51.51-54.55,67.52-84.53,96.49
		c-22.78,22.01-49.22,42.64-89.73,41.04c-9.31-0.37-60.11-3.1-85.02-44.92c-21.53-36.13-15.13-80.12-6.52-104.14
		c6.89-19.21,16.42-41.84,40.34-55.74c35.26-20.5,80.12-5.73,80.35-7.3c0.17-1.13-23.1-9.79-53.32-8.07
		c-12.33,0.7-50.31,3.19-81.81,31.55c-41.46,37.32-42.24,91.93-42.24,105.87c0,47.46,13.73,96.48,50.9,134.08
		c57.75,58.43,135.82,43.31,177.52,20.85c45.04-24.25,80.77-65.41,104.14-93.26c39.03-46.54,34.82-49.42,69.78-83.42
		c48.71-47.37,85.82-77.6,130.24-94.42c26.16-9.91,76.7-28.66,143.57-34.49c35.78-3.12,53.58-0.56,90.63-8.96
		c17.01-3.85,50.96-12.93,89.03-33.69c14.39-7.85,78.53-44.16,129.94-121.51c30.67-46.15,42.55-85.45,45.72-84.22
		c3.4,1.32-8.99,47-27.67,92.64c-29.54,72.16-65.88,122.47-80.61,141.97c-32.82,43.43-46.68,50.79-137.15,137.15
		c-138.18,131.91-166.52,172.67-178.46,190.63c-38.55,57.98-58.83,107.95-70.98,138.36c-22.4,56.06-53.01,132.64-55.34,237.01
		c-0.97,43.18-1.88,119.45,34.89,206.93c9.9,23.54,38.73,87.52,99.86,149.19c56.39,56.88,114.61,86.05,115.71,84.5
		c1.07-1.5-53.51-29.17-100.07-88.11c-41.53-52.58-55.4-105.09-69.78-151.59c-10.23-33.06-35.79-117.63-21.66-220.17
		c15.45-112.1,70.11-186.68,116.7-250.25c23.16-31.6,96.78-130.16,218.97-204.53c16.51-10.05,58.49-34.62,119.51-73.92
		c75.24-48.46,99.39-67.78,120.31-99.86c24.53-37.61,32.97-74.92,36.09-95.05c6.14-39.56,0.73-70.79-7.22-116.7
		c-9.48-54.76-22.24-89.65-20.45-90.23c2.15-0.69,21.62,49.15,39.7,107.08c16.63,53.28,30.21,96.78,38.5,157.61
		c9.19,67.44,6.77,118.69,6.02,132.34c-0.85,15.32-3.81,64.78-16.84,115.5c-26.94,104.84-73.92,125.55-130.34,240.75
		c-20.34,41.54-47.02,96.01-59.35,171.64c-6.57,40.28-23.63,154.59,33.69,279.12c39.71,86.28,95.87,136.45,110.69,149.18
		c96.85,83.23,232.56,101.37,232.68,101.02c0.04-0.11-22.07-5.86-49.81-17.07c-21.12-8.54-37.3-15.07-51.33-22.06
		c-32.81-16.33-55.02-35.65-68.71-47.72c-18.5-16.31-64.95-58.19-94.64-129.94c-17.44-42.14-21.49-76.5-24.86-105.07
		c-9.19-77.78,2.84-138.32,7.22-158.01c7.49-33.68,20.63-74.11,67.37-156.4c67.09-118.09,85.44-114.79,144.37-216.56
		C1552.99,1235.69,1558.64,1163.92,1558.9,1130.65z"/>
	
		<linearGradient id="SVGID_00000155869191249845856160000009107761164664855211_" gradientUnits="userSpaceOnUse" x1="453.8455" y1="553.638" x2="953.433" y2="553.638">
		<stop  offset="0" style="stop-color:#6C45F3"/>
		<stop  offset="0.6793" style="stop-color:#67B3F2;stop-opacity:0.7"/>
	</linearGradient>
	<path style="fill:url(#SVGID_00000155869191249845856160000009107761164664855211_);" d="M766.37,772.72
		c-3.23-3.92-6.19-8.03-8.84-12.35c-13.88-22.62-25.67-46.56-35.02-71.39c-15.13-40.13-20.3-72.79-24.06-97.45
		c-6.74-44.18-7.09-88.96-7.58-133.54c-0.32-29.05,0.58-64.46-16.51-90.22c-21.62-32.57-71.02-38.37-104.64-22.87
		c-38.27,17.64-48.63,58.59-50.53,66.17c-12.97,51.77,25.27,113.91,20.65,115.97c-4.15,1.85-46.82-45.85-55.24-94.68
		c-3.33-19.32-5.36-73.39,22.46-114.44c29.49-43.5,85.7-60.98,136.11-51.99c97.81,17.44,132.9,124.1,149.54,208.28
		c13.25,67.06,21.84,139.57,54.01,200.79c15.52,29.53,37.53,53.31,68.45,66.68c18.28,7.91,59.09,9.98,66.01,32.72
		c5.78,19.01-11.67,43.76-28.87,55.34C894.77,868.48,804.23,818.7,766.37,772.72z"/>
	
		<linearGradient id="SVGID_00000107586520449710595070000015857358272149059500_" gradientUnits="userSpaceOnUse" x1="228.8318" y1="616.8198" x2="776.4125" y2="616.8198">
		<stop  offset="0.31" style="stop-color:#6C45F3"/>
		<stop  offset="0.7729" style="stop-color:#67B3F2;stop-opacity:0.5"/>
	</linearGradient>
	<path style="fill:url(#SVGID_00000107586520449710595070000015857358272149059500_);" d="M296.32,303.29
		c0.83-0.91,1.68-1.82,2.53-2.73c-29.81,55.77-43.38,120.1-38.62,183.16c8.37,110.97,74.85,213.7,164.67,277.13
		c17.07,12.06,35.07,22.81,53.79,32.1c45.63,22.63,95.25,37.13,145.81,43.15c39.38,4.69,75.5,2.18,114.38-4.47
		c12.45-2.13,29.38-2.7,34.67,11.48c11.94,31.99-15.57,59.84-41.98,71.65c-26.44,11.82-56.26,15.89-84.94,17.66
		c-56.69,3.5-114.34-7.17-166.82-28.62c-72.66-29.7-136.62-80.7-176.51-148.84c-9.1-15.55-17.11-31.74-24.19-48.3
		c-24.21-56.65-42.73-117.1-48.35-178.66c-4.82-52.83-1.5-105.1,20.09-154.4C262.1,347.93,277.41,324,296.32,303.29z"/>
	
		<linearGradient id="SVGID_00000170240995807436004530000016903962890428775315_" gradientUnits="userSpaceOnUse" x1="1474.6075" y1="1467.2721" x2="1926.361" y2="1467.2721">
		<stop  offset="0" style="stop-color:#67B3F2"/>
		<stop  offset="0.4566" style="stop-color:#6A6CF3"/>
		<stop  offset="0.7003" style="stop-color:#6C45F3"/>
	</linearGradient>
	<path style="fill:url(#SVGID_00000170240995807436004530000016903962890428775315_);" d="M1586.64,1024.81
		c-11.56,8.31,5.88,34.89,11.1,58.15c7.99,35.64,8.15,76.06,2.59,114.68c-4.51,31.26-15.26,65.03-11.28,98.54
		c6.49,54.52,47.83,93.19,84.25,130.43c41.03,41.95,79.79,80.49,93.81,140.46c18.03,77.13,19.03,204.15-51.33,254.2
		c-46.15,32.83-137.03,34.69-181.27-11.23c-26.37-27.37-33.16-68.43-27.27-101.06c21.12-117.1,137.15-103.73,124.86-104.27
		c-5.16-0.22-105.34-10.69-145.98,86.09c-25.76,61.35-6.76,141.24,41.9,182.6c41.19,35.01,96.38,43.38,148.46,34.49
		c186.31-31.82,281.06-252.38,240.69-422.43c-33.55-141.34-113.73-266.89-212.62-371.61
		C1696.08,1104.87,1606.4,1010.63,1586.64,1024.81z"/>
	
		<linearGradient id="SVGID_00000046302265131926344540000015756191005046342053_" gradientUnits="userSpaceOnUse" x1="1831.3271" y1="1362.9091" x2="2510.5166" y2="1362.9091">
		<stop  offset="0" style="stop-color:#67B3F2;stop-opacity:0.5"/>
		<stop  offset="0.132" style="stop-color:#67B0F2;stop-opacity:0.616"/>
		<stop  offset="0.237" style="stop-color:#68A6F2;stop-opacity:0.7083"/>
		<stop  offset="0.3327" style="stop-color:#6895F2;stop-opacity:0.7925"/>
		<stop  offset="0.423" style="stop-color:#697DF2;stop-opacity:0.8718"/>
		<stop  offset="0.5085" style="stop-color:#6B5FF3;stop-opacity:0.947"/>
		<stop  offset="0.5688" style="stop-color:#6C45F3"/>
	</linearGradient>
	<path style="fill:url(#SVGID_00000046302265131926344540000015756191005046342053_);" d="M1831.86,1217.48
		c0.53,1.47,1.38,2.88,2.22,4.22c33.26,53.46,60.51,110.18,82.89,169c2.95,7.74,20.23,46.47,33.69,68.18
		c16.66,26.88,36.61,26.81,47.32,34.49c38.84,27.83,121.05,64.79,224.58,55.34c89.97-8.21,200.42-46.67,247.77-128.46
		c12.55-21.69,31.26-59.52,36.23-87.83c4.49-25.62,5.92-118.29,0.28-156.76c-0.01-0.05-0.09-0.06-0.1,0
		c-7.86,38.45,2.66,108.5-52.51,201c-58.69,98.42-181.61,99.64-280.22,62.1c-36.49-13.89-71.18-32.74-102.85-55.56
		c-26.15-18.84-50.14-40.68-71.25-65.04c-17.23-19.89-32.5-41.33-48.52-62.17c-15.86-20.63-30.9-41.51-56.38-50.53
		c-11.21-3.97-61.85-10.77-63.64,8.61C1831.25,1215.24,1831.46,1216.38,1831.86,1217.48z"/>
	
		<linearGradient id="SVGID_00000066505836094183950310000009444877162444359048_" gradientUnits="userSpaceOnUse" x1="1493.2859" y1="921.8286" x2="2528.2275" y2="921.8286">
		<stop  offset="0.1231" style="stop-color:#67B3F2;stop-opacity:0.1"/>
		<stop  offset="0.2591" style="stop-color:#67B0F2;stop-opacity:0.3088"/>
		<stop  offset="0.3673" style="stop-color:#68A6F2;stop-opacity:0.4749"/>
		<stop  offset="0.466" style="stop-color:#6895F2;stop-opacity:0.6265"/>
		<stop  offset="0.5589" style="stop-color:#697DF2;stop-opacity:0.7692"/>
		<stop  offset="0.6471" style="stop-color:#6B5FF3;stop-opacity:0.9046"/>
		<stop  offset="0.7092" style="stop-color:#6C45F3"/>
	</linearGradient>
	<path style="fill:url(#SVGID_00000066505836094183950310000009444877162444359048_);" d="M2365.68,793.54
		c14.44,0.38,62.41,18.16,71.49,23.47c10.02,5.86,19.41,12.77,28.06,20.5c17.38,15.54,31.73,34.43,42.29,55.2
		c20.07,39.46,29.09,92.43,10.79,133.96c-24.96,56.65-80.33,93.96-141.61,103.98c-70.19,11.47-140.2-20.75-178.71-80.54
		c-15.74-24.44-28.66-51.19-42.08-76.9c-14.55-27.87-36.18-58.33-64.97-70.98c-43.63-19.18-109.48-11.64-150.39,12.83
		c-32.38,19.38-67.12,41.45-91.69,70.07c-32.69,38.07-52.93,88.31-110.8,77.68c-21.56-3.96-41.69-13.49-60.89-24.07
		c-50.22-27.66-96.05-63.38-133.59-106.82c-22.19-25.68-40.43-55.37-49.13-88.17c-7.85-29.62,25.73-27.38,45.19-24.95
		c60.9,7.62,121.77,9.78,181.43-6.73c57.14-15.81,109.89-43.6,164.92-65.08c80.58-31.46,176.12-55.23,258.18-15.25
		c50.59,24.64,88.92,72.58,103.16,127.02c7.85,30.01,8.72,61.42,15.22,91.75c6.5,30.33,20.1,61.17,46.14,78.01
		c24.87,16.08,57.21,16.59,85.79,8.82c30.09-8.18,58.62-25.86,74.43-52.73c17.78-30.22,18.99-66.33,2.56-97.29
		C2460,865.67,2453.04,823.16,2365.68,793.54z"/>
	<path class="st7" d="M1864.42,242.58c0.92-1.08,2.43-1.5,4.7-0.69c3.74,1.34,6.6,5.59,8.75,8.68c6.13,8.79,10.64,18.76,14.88,28.56
		c0.83,1.92,1.63,3.85,2.45,5.77c9.25,21.69,15.28,44.67,18.29,68.05c6.86,53.36-6.48,106.72-34.64,152.55
		c-23.37,38.04-38.37,56.63-71.81,85.67c-5.1,4.43-31.92,27.66-39.67,26.36c-10.4-1.74-8.26-29.98-8.83-37.64
		c-2.39-32-13.48-63.04-37.95-84.77c-8.38-7.44-18.93-17.99-6.02-27.6c7.89-5.87,18.1-6.61,27.3-9.13
		c48.52-13.27,90.86-47.16,114.46-91.58c7.3-13.74,13.11-28.44,15.68-43.84c4.08-24.46-1.88-48.98-8.3-72.48
		C1862.94,247.73,1862.94,244.31,1864.42,242.58z"/>
	<g>
		<path class="st8" d="M1446.02,601.78c0.88-1.24,1.83-2.45,2.85-3.62c18.41-21.25,63.74-22.21,65.77,12.91
			c0.59,10.13-2.8,20.36-6.54,29.65c-8.83,21.95-27.41,37.83-48.36,47.82c-17.73,8.45-37.61,11.7-57.15,11.04
			c-9.85-0.33-19.67-1.65-29.28-3.87c-3.48-0.8-23.76-4.44-23.63-9.18c0.04-1.63,3.36-2.8,5.48-3.47
			c13.46-4.27,28.03-3.57,40.87-9.93c19.31-9.57,28.5-28.28,37.43-46.83C1437.48,617.94,1440.63,609.33,1446.02,601.78z"/>
		<path class="st8" d="M1130.05,677.12c0.73-6.94-11.29-11.63-21.15-19.04c-12.42-9.34-18.68-20.97-25.93-34.42
			c-7.52-13.95-10.07-24.73-13.42-24.28c-0.63,0.08-2.25,0.69-3.86,8.91c-1.47,7.48-3.6,18.34,0.74,32.5
			c1.58,5.15,9.22,30.08,32,38.96c10.09,3.93,26.64,6.09,30.71,0C1129.88,678.62,1130.01,677.53,1130.05,677.12z"/>
	</g>
	
		<linearGradient id="SVGID_00000063631020011772933100000011394123379451859899_" gradientUnits="userSpaceOnUse" x1="927.7851" y1="577.7711" x2="499.4893" y2="330.4944">
		<stop  offset="0" style="stop-color:#FFFFFF;stop-opacity:0"/>
		<stop  offset="0.6788" style="stop-color:#FFFFFF"/>
	</linearGradient>
	<path style="fill:url(#SVGID_00000063631020011772933100000011394123379451859899_);" d="M493.43,344.48
		c11.93-30.89,32.91-55.62,64.84-69.12c29.21-12.36,60.09-15.29,91.1-8.63c57.89,12.44,94.14,60.89,115.77,111.96
		c21.66,51.13,29.26,104.1,39.92,160.04c10.28,53.92,23.56,112.03,54.51,157.2c-8.03-10.95-16.58-22.21-23.57-34.2
		c-6.78-11.63-13.11-23.52-18.45-35.87c-10.83-25.05-18.5-51.35-24.65-77.89c-10.58-45.67-17.34-92.29-31.13-137.09
		c-13.2-42.87-34.2-85.51-70.53-111.81c-31.09-22.51-72.03-30.85-109.45-22.31C544.37,285.29,511.67,310.71,493.43,344.48z"/>
	
		<linearGradient id="SVGID_00000030446806620170028650000011005229267694449314_" gradientUnits="userSpaceOnUse" x1="256.5043" y1="637.416" x2="645.4441" y2="637.416">
		<stop  offset="0" style="stop-color:#FFFFFF;stop-opacity:0.5"/>
		<stop  offset="0.5164" style="stop-color:#FFFFFF;stop-opacity:0.954"/>
		<stop  offset="0.5688" style="stop-color:#FFFFFF"/>
	</linearGradient>
	<path style="fill:url(#SVGID_00000030446806620170028650000011005229267694449314_);" d="M260.06,436.57
		c0.42-4.54-3.07,50.66,7.64,96.01c17.82,75.4,53.31,123.49,72.33,147.77c13.4,17.11,53.18,65,120.88,103.22
		c0,0,59.23,33.44,129.76,47.2c19.73,3.85,35.65,5.46,35.65,5.46c11.2,1.13,20.88,1.81,18.84,1.69c-0.67-0.04-30.92,1.16-52.45,0.24
		c-15.52-0.66-68.81-7.09-122.32-29.24c-75.57-31.29-120.73-86.35-146.65-123.15c-20.64-29.31-54.98-79.25-64.7-150.25
		C252.84,490.09,259.91,438.31,260.06,436.57z"/>
	
		<linearGradient id="SVGID_00000001643784290649799330000007977961190463395250_" gradientUnits="userSpaceOnUse" x1="1593.2834" y1="771.7426" x2="2206.4001" y2="771.7426">
		<stop  offset="0" style="stop-color:#FFFFFF;stop-opacity:0.9"/>
		<stop  offset="0.6366" style="stop-color:#FFFFFF;stop-opacity:0.5368"/>
		<stop  offset="0.7011" style="stop-color:#FFFFFF;stop-opacity:0.5"/>
	</linearGradient>
	<path style="fill:url(#SVGID_00000001643784290649799330000007977961190463395250_);" d="M1593.41,823.78
		c6.54-0.87,59.79,6.43,132.13-13.21c16.3-4.42,33.07-9.75,70.12-25.65c58.16-24.96,62.26-27.51,97.42-41.61
		c37.91-15.2,77.48-26.44,128.67-31.75c22.24-2.31,61.63-2.74,102.06,10.79c15.57,5.21,33.65,15.28,50.59,27.67
		c8.89,6.5,16.08,13.66,18.45,15.81c7.02,6.36,14.61,15.97,13.43,14.5c-0.89-1.12-17.93-16.82-49.92-34.9
		c-27.48-15.53-51.78-21.51-60.96-23.53c-34.88-7.65-62.65-4.34-83.95-1.6c-17.84,2.29-44.2,7.18-90.9,25.13
		c-61,23.45-60.5,32.2-113.89,54.01c-36.04,14.72-81.13,32.66-140.1,33.69C1626,833.83,1590.89,824.11,1593.41,823.78z"/>
	
		<linearGradient id="SVGID_00000108266798668894945810000013625377829730015911_" gradientUnits="userSpaceOnUse" x1="1763.4854" y1="1528.1807" x2="1927.3929" y2="1528.1807">
		<stop  offset="0" style="stop-color:#FFFFFF;stop-opacity:0"/>
		<stop  offset="0.8221" style="stop-color:#FFFFFF;stop-opacity:0.6928"/>
		<stop  offset="0.9493" style="stop-color:#FFFFFF;stop-opacity:0.8"/>
	</linearGradient>
	<path style="fill:url(#SVGID_00000108266798668894945810000013625377829730015911_);" d="M1763.49,1180.23
		c47.37,58.52,78.31,112.02,98.06,151.41c27.81,55.45,41.59,99.08,46.18,114.49c5.61,18.81,10.89,36.19,14.78,59.58
		c3.28,19.77,9.9,69.75-1.59,132.22c-5.19,28.23-18.79,86.36-61.2,149.23c-40.95,60.7-94.63,88.91-94.57,88.98
		c0.04,0.04,16.78-12.22,36.64-32.7c29.51-30.43,54.71-66.88,68.68-107.57c15.86-46.2,20.94-98.13,19.55-146.42
		c-2.42-83.99-23.92-166.23-52.3-245.24c-4.4-12.26-9.17-24.38-14.31-36.35c-9.13-21.21-18.74-42.2-27.5-63.57
		C1784.39,1216.22,1772.13,1194.4,1763.49,1180.23z"/>
	<path class="st13" d="M166.11,1180.78c-0.05,8.72,0.41,19.75,2.24,32.38c2.09,14.46,5.13,25.13,5.91,27.82
		c2.55,8.77,8.66,29.14,23.89,51.08c6.85,9.87,19.85,28.19,43.82,42.98c5.16,3.18,29.93,19.09,65.16,20.39
		c37.68,1.39,65.66-9.09,79.27-15.23c18.19-8.21,30.06-17.65,43.85-28.28c25.49-19.64,42.5-39.2,64.94-65.33
		c15.82-18.43,29.98-38.05,45.39-56.8c19.62-23.87,41.56-44.67,65.12-64.67c26.76-22.72,55.48-44.92,87.89-58.4
		c40.61-16.88,94.47-27.74,140.9-35.9c-75.94-6.09-158.16,13.2-222.98,53.23c-16.2,10-31.51,21.4-45.59,34.22
		c-11.35,10.33-21.87,21.58-31.32,33.68c-23.27,29.8-42.27,62.69-66.08,92.09c-8.3,10.25-17.18,20.05-26.9,28.98
		c-52.55,48.29-128.67,78.12-195.29,40.18c-23.88-13.6-44.41-33.66-57.63-57.83C174.1,1228.71,165.44,1197.92,166.11,1180.78z"/>
	<path class="st13" d="M883.5,841.87c-11.03-1.46-27.75-6.48-43.51-13.95c-4.4-2.09-13-5.86-24.82-12.91
		c-34.03-20.31-54.31-48.58-57.98-54.41c-7.3-11.59-12.06-19.99-19.05-33.54c-19.33-37.46-27.77-72.33-32.53-92.15
		c-12.35-51.44-13.67-121.76-13.75-123.11c1.26,21.06,8.52,79.44,14.06,99.63C725.28,681.82,743,738,798.39,788.66
		c12.12,11.08,31.7,26.79,45.48,35.71C854.41,831.2,871.04,839.21,883.5,841.87z"/>
	
		<linearGradient id="SVGID_00000005970003919848590470000017132911798792222619_" gradientUnits="userSpaceOnUse" x1="1686.9613" y1="993.5214" x2="2491.5959" y2="993.5214">
		<stop  offset="0" style="stop-color:#5A32BD;stop-opacity:0.8"/>
		<stop  offset="0.5551" style="stop-color:#5A37BE;stop-opacity:0.5547"/>
		<stop  offset="0.6788" style="stop-color:#5A39BF;stop-opacity:0.5"/>
	</linearGradient>
	<path style="fill:url(#SVGID_00000005970003919848590470000017132911798792222619_);" d="M1687,1043.22
		c-1.46-8.11,39.29-16.1,76.45-35.77c26.35-13.95,43.91-35.16,65.23-55.24c26.89-25.32,57.04-48.31,90.01-65.21
		c33.82-17.34,71.4-30.7,109.91-32.83c26.95-1.49,57.39,1.51,81.06,15.58c21.51,12.78,37.62,33,49.02,54.97
		c19.06,36.72,39.45,73.11,61.65,108.05c32.11,50.53,89.12,90.08,151.36,84.17c35.06-3.32,61.17-11.39,71.38-15.51
		c24.9-10.03,41.24-26,48.36-32.68c2.47-2.32-22.14,25.03-51.75,40.72c-30.84,16.35-58.09,20.52-64,21.35
		c-16.43,2.33-60.08,8.34-107.46-15.71c-17.76-9.01-32.05-20.95-38.22-26.38c-9.35-8.22-16.81-11.97-40.49-52.76
		c-8.11-13.96-16.12-27.95-23.22-42.45c-9.02-18.41-18.9-36.47-31.41-52.77c-5.16-6.72-10.3-13.37-16.5-19.16
		c-7.59-7.09-16.14-13.08-25.49-17.61c-18.48-8.95-38.82-11.42-54.14-11.96c-7.96-0.28-32.93-2.28-66.92,9.09
		c-18.09,6.05-29.63,13.07-49.32,24.95c-21.08,12.73-38.49,24.64-60.44,45.17c-16.41,15.35-32.8,39.07-33.76,40.36
		c-9.33,12.47-13.23,18.97-23.08,28.31c-9.02,8.56-18.02,16.91-32.28,21.38c-14.34,4.49-25.48,2.89-33.79,1.7
		c-5.52-0.79-18.39-3.23-40.16-13.1C1689.47,1045.55,1687.26,1044.66,1687,1043.22z"/>
	<path class="st13" d="M1544.95,2223.97c-0.63,1.65-106.82-26.12-184.05-99.84c-15.06-14.38-26.04-27.65-29.12-31.43
		c-38.87-47.67-55.39-94-61.68-114.36c-7.85-25.41-10.44-44.71-13.09-64.51c-3.79-28.25-10.25-79.5,0.92-143.86
		c9.65-55.59,28.16-96.17,39.8-121.24c9.52-20.51,18.37-36.15,30.33-57.27c10.69-18.9,29.24-50.45,55.56-88.77
		c28.67-41.74,30.53-39.04,54.42-73.5c38.4-55.39,61.27-102.26,68.88-118.33c17.06-36.04,33.54-72.38,42.66-111.35
		c6.75-28.85,8.53-50.17,9.18-61.43c1.4-24.6,2.87-50.29-6.46-81.61c-1.35-4.54-7.91-29.28-24.73-53.07
		c-10.43-14.76-12.53-17.13-26.14-36.91c-17.5-25.45-22.76-34.64-22.7-34.5c10.3,22.01,40.06,67.29,49.6,87.78
		c29.81,64,27.96,109.19,10.86,177.93c-42.47,170.74-204.84,285.22-275.93,444.54c-0.74,1.65-1.46,3.3-2.18,4.96
		c-14.1,32.44-24.94,66.28-31.38,101.09c-16.25,87.87-10.66,182.17,24.91,264.82c24.9,57.86,65.07,108.42,117.76,143.31
		c52.65,34.86,109.79,51.96,170.21,66.84C1542.71,2223.27,1545.03,2223.73,1544.95,2223.97z"/>
	<path class="st13" d="M1877.8,1300.54c1.22-0.59,23.87,63.33,80.33,129.08c15.1,17.59,27.19,31.67,46.52,46.52
		c59.86,46,124.65,57.61,167.5,60.96c36.91,2.88,99.45,3.51,165.93-23.33c81.39-32.85,125.54-82.87,130.38-90.44
		c1.87-2.93-15.08,25.63-32.25,40.62c-14.47,12.64-28.37,23.55-50.14,35.9c-49.44,28.06-98.7,39-123.46,43.34
		c-28.02,4.91-71.27,12.61-136.84,1.38c-63.56-10.89-106.61-35.7-111.18-39.38c-0.57-0.46-14.11-10.31-20.18-13.98
		c-3.37-2.04-6.31-2.51-7.42-2.93c0,0-11.57-3.5-22.39-12.03c-9.52-7.51-14.12-16.95-18.07-24.33
		c-17.54-32.79-24.94-49.31-35.04-75.31C1893.74,1330.9,1876.93,1300.96,1877.8,1300.54z"/>
	<path class="st15" d="M1790.9,520.32"/>
	
		<linearGradient id="SVGID_00000016067949573339511090000002046710417062997402_" gradientUnits="userSpaceOnUse" x1="1793.2775" y1="430.3078" x2="1911.0265" y2="546.6171">
		<stop  offset="0" style="stop-color:#5A32BD;stop-opacity:0.8"/>
		<stop  offset="0.5551" style="stop-color:#5A37BE;stop-opacity:0.5547"/>
		<stop  offset="0.6788" style="stop-color:#5A39BF;stop-opacity:0.5"/>
	</linearGradient>
	<path style="fill:url(#SVGID_00000016067949573339511090000002046710417062997402_);" d="M1749.92,538.91
		c3.43-14.37,29.4-18.94,40.84-23.05c36.03-12.96,67.62-37.04,87.86-69.97c13.11-21.33,21.54-44.04,27.51-68.25
		c3.46-14.02,6.32-32.4,3.61-46.64c0.96,5.05,10.97,41.51,1.63,91.21c-1.01,5.36-4.2,21.31-11.59,40.89c0,0-20.71,64.5-85.06,121.29
		c-9.21,8.13-9.92,9.11-22.63,19.14c-5.45,4.3-11.61,8.4-17.22,11.73c-1.08,0.64-3.62,2.7-6.76,2.32c-2.2-0.27-3.72-1.57-4.22-2
		c-5.23-4.49-4.68-10.86-5.55-24.01c-0.12-1.79-1.01-13.27-3.33-25.52C1750.08,540.05,1749.51,540.62,1749.92,538.91z"/>
	<path class="st13" d="M738.18,1578.41c3.29-11.07,7.24-21.94,11.82-32.54c24.25-56.17,51.2-101.05,74-134.39
		c44.24-64.71,86.96-106.69,99.46-118.71c23.16-22.29,60.58-57.86,117.1-91.44c15.93-9.46,49.66-26.09,117.1-59.35
		c28.03-13.82,61.53-30.07,94.64-62.56c14.21-13.94,23.55-26.17,25.87-29.23c29.92-39.63,38.77-68.62,39.72-73.53
		c0.42-2.17-3.86,36.66-24.51,75.16c-12.65,23.58-25.72,38.87-28.63,42.21c-7.87,9.03-19.16,20.41-57.59,47.32
		c-10.26,7.19-24.61,16.99-58.77,38.61c-21.35,13.51-32.03,19.99-80.84,50.14c-46.82,28.92-51.11,31.68-58.03,36.44
		c-6.76,4.64-34.78,23.16-66.71,52.02c-50.23,45.4-85.32,85.9-106.54,113.76c-31.75,41.68-53.98,72.21-78.89,116.47
		c-16.37,29.09-28.51,61.92-27.99,60.35C731.53,1602.67,734.05,1592.3,738.18,1578.41z"/>
	<path class="st13" d="M1290.21,769.72c32.18,136.8-35.03,284.74-160.29,347.1c-84.04,41.84-165.89,78.96-238.35,140.46
		c-76.34,64.79-130.75,152.34-161.59,247.15c-16.02,49.24-25.35,100.29-28.6,151.95c-0.35,5.49-3.73,94.92,0.88,95.03
		c0.34,0.01-0.05-18.04,3.14-44.12c1.59-12.99,5.36-38.59,21.79-92.18c8.97-29.24,16.11-52.52,27.95-80.89
		c24.24-58.06,51.84-98.28,70.95-125.79c20.39-29.36,56.37-80.48,117.11-134.28c13.63-12.07,62.77-55.6,117.86-84.01
		c22.63-11.67,50.63-25.46,50.63-25.46c31.84-15.69,38.01-18.11,55.96-27.64c25.54-13.55,38.31-20.33,53.13-31.11
		c11.68-8.5,32.69-25.15,53.61-50.9c17.07-21.01,26.85-39.17,31.61-48.78c8.87-17.9,11.44-28.56,12.28-32.37
		c3.61-16.28,2.81-29.34,2.13-38.24c-3.51-46.11-11.92-87.5-16.34-108.95C1293.04,773.14,1289.91,768.45,1290.21,769.72z"/>
	<path class="st13" d="M1529.4,599.65c-0.24,0.81-0.26,1.72-0.27,2.58c-0.12,16.62-0.73,34.38-6.98,50
		c-3.48,8.92-8.62,17.12-14.53,24.62c-1.12,1.42-2.27,2.81-3.45,4.19c-8.8,10.27-19.15,19.21-30.33,26.79
		c-12.02,8.15-25.07,14.68-38.39,20.43c-13.81,5.95-27.9,7.65-42.87,7.06c-25.32-1.02-51.18-7.08-73.15-19.99
		c-4.62-2.72-9.09-5.68-13.5-8.73c-1.89-1.31-4.61-4.07-6.95-4.53c-0.18-0.04-0.49-0.21-0.64,0c-0.9,1.22,10.85,12.34,23.79,21.57
		c20.32,14.49,43.69,24.54,68.18,29.34c15.24,2.99,30.94,4.5,46.47,3.82c12.66-0.55,26.47-2.4,37.37-9.36
		c2.28-1.46,4.43-3.16,6.27-5.15c1.8-1.93,5.7-6.66,12.83-13.79c8.39-8.4,12.22-10.18,20.94-18.99c6.22-6.28,8.98-9.72,12.13-13.87
		c8.16-10.77,11.4-21.04,13.07-26.12c0,0,10.44-27.13,1.67-55.05c-1.13-3.58-1.91-7.31-3.53-10.72c-0.96-2.02-4.86-8.76-7.58-5.22
		C1529.7,598.86,1529.53,599.24,1529.4,599.65z"/>
	<path class="st13" d="M1018.55,523.87c-0.36-0.8,12.12-10.16,27.15-13.9c23.82-5.92,48.7,3.59,67.99,17.37
		c17.8,12.71,29.84,31.41,38.05,51.4c8.96,21.82,10.94,52.03,30.41,67.87c4.83,3.93,9.77,8.15,15.44,10.49
		c1.94,0.8,14.99,3.44,16.74,3.9c0.72,0.19-7.77,0.62-14.2-1.06c-10.31-2.7-17.01-8.43-20.96-11.73
		c-7.67-6.41-11.99-12.82-15.21-17.7c-4.78-7.23-7.49-13.61-12.72-26.08c-5.42-12.92-4.95-13.75-9.55-23.96
		c-4.26-9.45-6.91-15.33-12.06-22.57c-6.5-9.14-13.13-15.02-16.16-17.55c-2.69-2.25-11.51-9.38-25.01-14.94
		c-11.78-4.86-21.98-6.41-27.91-7c-4.38-0.43-12.37-1.17-22.48,0.39C1026.23,520.63,1018.81,524.47,1018.55,523.87z"/>
	<path class="st13" d="M1320.97,666.33c-1.88,0.81,26.48-4.01,53.31-29.21c6.59-6.19,13.57-12.56,26.07-27.66
		c16.17-19.52,16.46-20.89,27.7-33.29c15.27-16.86,26.61-29.38,45.55-39.15c20.92-10.78,43.47-14.92,66.18-6.76
		c15.13,5.44,28.45,15.81,37.43,29.14c0.3,0.44,0.66,0.93,1.19,0.99c0.69,0.08,1.2-0.59,1.54-1.2c2.13-3.78,3.39-8,4.1-12.28
		c0.84-5.02,0.93-10.24-0.49-15.12c-3.27-11.23-13.93-18.81-24.88-22.9c-17.83-6.67-37.76-6.34-56.2-1.59
		c-27.43,7.07-55.14,22.95-75.31,42.81c-10.62,10.46-19.71,22.46-28.7,34.31c-6.1,8.05-12.19,16.11-18.23,24.21
		c-6.19,8.29-11.85,17.53-18.72,25.25C1350.03,646.83,1337.09,659.37,1320.97,666.33z"/>
	<path class="st17" d="M1196.65,782.2c-2.4,1.69-60.67,97.53-145.13,149.78C1003,962,981.07,964.92,881.88,989.82
		c-85.18,21.39-205.16,21.91-273.61,84.08c-12.3,11.17-28.66,32.65-29.87,33.64c-1.84,1.5,7.9-6.35,15.62-11.88
		c22.04-15.8,40.1-25.13,59.67-33.87c28.88-12.9,54.37-19.69,71.81-23.41c10.21-2.18,41.73-8.42,81.28-8.12
		c11.41,0.09,13.77,0.65,28.11,0.57c30.41-0.17,53.1-2.87,60.14-3.76c14.65-1.85,34.05-4.3,58.33-11.23
		c13.29-3.79,41.5-12.77,74.03-31.42c6.39-3.67,35.59-20.69,67.84-51.16c10.46-9.88,29.18-28.69,48.47-55.5
		c16.43-22.84,30.86-48.14,36.72-62c1.16-2.75,4.64-9.72,9.22-19.72C1194.49,785.46,1197.55,781.57,1196.65,782.2z"/>
	<path class="st17" d="M543.7,363.91c13.6-13.57,28.28-26.77,46.16-33.82c29.9-11.79,66.67-3.22,88.28,20.56
		c17.83,19.62,24.79,46.87,26.98,73.29c2.85,34.24,1.81,68.77,4.25,103.06c0.56,7.89,1.17,15.78,1.8,23.67
		c5.82,73.04,30.98,146.79,78.49,203.35c32.82,39.07,82.34,80.25,135.89,72.67c20.4-2.89,41.23-18.9,55.16-34.08
		c-5.7,21.3-23.87,38.1-44.59,45.65c-20.72,7.55-43.17,7.43-64.12,0.54c-20.95-6.88-40.61-20.23-57.6-34.29
		c-24.65-20.39-45.81-44.95-62.52-72.21c-17.05-27.82-27.22-57.57-36.78-88.54c-8.7-28.15-17.04-56.64-19.87-86.01
		c-3.25-33.73-4.83-67.62-4.73-101.51c0.05-16.5,0.49-33.09-2.01-49.4c-2.5-16.31-8.16-32.54-18.96-45.01
		c-17.07-19.73-45.19-27.44-71.12-24.53C577.81,339.63,557.48,348.4,543.7,363.91z"/>
	
		<linearGradient id="SVGID_00000071536025469873067830000014099322141425955998_" gradientUnits="userSpaceOnUse" x1="1492.408" y1="1747.5271" x2="1758.0109" y2="1747.5271">
		<stop  offset="0" style="stop-color:#67B3F2"/>
		<stop  offset="0.4566" style="stop-color:#6A6CF3"/>
		<stop  offset="0.7003" style="stop-color:#6C45F3"/>
	</linearGradient>
	<path style="fill:url(#SVGID_00000071536025469873067830000014099322141425955998_);" d="M1543.96,1636.66
		c-13.81,12.62-20.82,26.29-24.25,33.13c-1.29,2.58-6.96,14.1-10.7,30.6c-1.8,7.92-5.28,23.9-3.05,44.52
		c1.02,9.38,2.98,25.93,13.22,44.01c14.69,25.94,36.7,37.88,44.58,42.03c18.07,9.5,33.69,11.5,46.2,13.11
		c12.68,1.63,40.41,4.86,72.89-6.77c10.49-3.75,27.76-9.95,44.1-25.2c12.93-12.06,20.87-25.63,21.7-27.07
		c5.87-10.2,9.49-19.09,9.35-18.16c-0.5,3.2-1.43,16.02-6.98,29.61c-11.23,27.49-32.88,42.86-40.5,48.12
		c-39.34,27.19-83.56,22.3-96.65,20.85c-18.51-2.05-65.45-7.23-96.65-47.32c-29.92-38.45-25.04-82.87-23.66-95.45
		c1.39-12.68,5.26-47.86,32.08-73.79c11.97-11.57,27.75-20.27,28.33-20.6C1554.16,1628.2,1549.32,1631.76,1543.96,1636.66z"/>
	<path class="st13" d="M237.91,577.14c-0.01-0.07-0.02-0.13-0.04-0.2c5.17,27.27,16.17,54.42,26.9,79.91
		c11.04,26.24,24.14,51.61,39.14,75.81c29.63,47.82,66.97,90.97,112.88,123.8c46.88,33.52,101.35,56.84,158.41,65.6
		c31.65,4.86,63.66,5.46,95.32,1.04c29.84-4.17,57.35-10.32,83.94-25.27c2.31-1.3,4.49-2.79,6.75-4.19
		c-17.38,19.76-43.83,28.12-68.81,33.08c-29.71,5.9-60.25,7.58-90.46,5.58c-40.24-2.66-80.02-11.84-117.52-26.65
		c-26.86-10.6-46.55-21.74-55.54-27.05c-33.29-19.66-55.49-39.56-63.17-46.66c-21.23-19.63-35.1-37.23-40.64-44.51
		c-35.81-47.07-59.37-104.79-75.31-161.45C245.2,609.79,241.05,593.66,237.91,577.14z"/>
</g>
</svg>
